<svg width="22" height="23" viewBox="0 0 22 23" fill="none" xmlns="http://www.w3.org/2000/svg">
<path d="M1.67471 4.80499C2.30083 4.13482 3.3268 3.11038 4.17116 2.27777C4.95283 1.50696 6.20908 1.52204 6.97964 2.30396L8.93705 4.29022C9.51746 4.87918 9.49505 5.81452 8.96479 6.44902C7.35798 8.37171 7.65548 9.57195 10.2674 12.1839C12.8817 14.7982 14.0457 15.0578 15.9684 13.443C16.5996 12.913 17.5318 12.8936 18.1188 13.4721L20.1378 15.462C20.9201 16.2331 20.9346 17.4903 20.1629 18.2721C19.3321 19.1139 18.3104 20.137 17.638 20.7682C13.5743 24.5831 -2.13081 8.87825 1.67471 4.80499Z" stroke="#E82583" stroke-width="1.5"/>
</svg>
