<svg width="16" height="16" viewBox="0 0 16 16" fill="none" xmlns="http://www.w3.org/2000/svg">
<path d="M1.43301 8.00001C1.43301 4.37511 4.36837 1.43334 7.99301 1.43334C11.6245 1.43334 14.5663 4.3753 14.5663 8.00001C14.5663 11.6247 11.6245 14.5667 7.99301 14.5667C4.36837 14.5667 1.43301 11.6249 1.43301 8.00001ZM2.56634 8.00001C2.56634 11.0019 4.99778 13.4333 7.99967 13.4333C11.0016 13.4333 13.433 11.0019 13.433 8.00001C13.433 4.99811 11.0016 2.56668 7.99967 2.56668C4.99778 2.56668 2.56634 4.99811 2.56634 8.00001Z" fill="#292D32" stroke="white" stroke-width="0.2"/>
<path d="M8.23301 8.16666V8.2236L8.28198 8.25266L11.1949 9.98101L10.7993 10.6298L7.43301 8.61004V4.76666H8.23301V8.16666Z" fill="#292D32" stroke="white" stroke-width="0.2"/>
</svg>
