<svg width="40" height="40" viewBox="0 0 40 40" fill="none" xmlns="http://www.w3.org/2000/svg">
<path fill-rule="evenodd" clip-rule="evenodd" d="M10.5335 14.1905C17.6213 15.1908 23.1651 12.6074 27.0256 6.47507C27.045 6.44433 27.0627 6.41281 27.0787 6.38065C28.5644 8.05245 29.4669 10.2542 29.4669 12.6667V16.1333C29.4669 19.637 27.5457 22.7867 24.5675 24.4276C24.1795 24.158 23.7081 24 23.1998 24C21.8743 24 20.7998 25.0745 20.7998 26.4C20.7998 27.7255 21.8743 28.8 23.1998 28.8C23.8711 28.8 24.478 28.5244 24.9136 28.0802C24.2646 30.119 22.3101 31.6 19.9998 31.6C17.1617 31.6 14.8605 29.3649 14.857 26.6064L15.6158 24.5258C12.5336 22.9147 10.5335 19.7082 10.5335 16.1333V14.1905ZM10.5523 12.0658C10.8622 7.11748 14.9737 3.20001 20.0002 3.20001C22.1187 3.20001 24.0747 3.89591 25.652 5.07158C25.6036 5.12143 25.5591 5.17791 25.5194 5.24083C22.045 10.7599 17.1342 13.0259 10.6453 12.0741C10.6141 12.0696 10.5831 12.0668 10.5523 12.0658ZM12.8808 27.6536C13.4035 31.0197 16.3917 33.6 19.9998 33.6C23.6087 33.6 26.5974 31.0187 27.1191 27.6515L30.9554 28.425C32.4793 28.7223 33.6935 29.8746 34.07 31.3809L35.1763 35.806C35.3025 36.3109 34.9207 36.8 34.4002 36.8H5.6002C5.07974 36.8 4.69786 36.3109 4.82408 35.806L5.92893 31.3866C6.30642 29.8767 7.5255 28.7228 9.0462 28.4303L12.8808 27.6536Z" fill="#E82583"/>
<path opacity="0.3" fill-rule="evenodd" clip-rule="evenodd" d="M23.2004 27.2C23.6422 27.2 24.0004 26.8418 24.0004 26.4C24.0004 25.9581 23.6422 25.6 23.2004 25.6C22.7586 25.6 22.4004 25.9581 22.4004 26.4C22.4004 26.8418 22.7586 27.2 23.2004 27.2Z" fill="#E82583"/>
<path opacity="0.3" fill-rule="evenodd" clip-rule="evenodd" d="M30.9708 11.2H31.2001C32.5256 11.2 33.6001 12.2745 33.6001 13.6V16.8C33.6001 18.1255 32.5256 19.2 31.2001 19.2H30.6348C30.9177 18.2182 31.0671 17.1877 31.0671 16.1333V12.6667C31.0671 12.1694 31.0343 11.6799 30.9708 11.2Z" fill="#E82583"/>
<path opacity="0.3" fill-rule="evenodd" clip-rule="evenodd" d="M9.36649 19.2H8.80039C7.47491 19.2 6.40039 18.1255 6.40039 16.8V13.6C6.40039 12.2745 7.47491 11.2 8.80039 11.2H9.03045C8.96691 11.6799 8.93412 12.1694 8.93412 12.6667V16.1333C8.93412 17.1877 9.08356 18.2182 9.36649 19.2Z" fill="#E82583"/>
</svg>
