<svg width="40" height="40" viewBox="0 0 40 40" fill="none" xmlns="http://www.w3.org/2000/svg">
<path fill-rule="evenodd" clip-rule="evenodd" d="M36.933 15.7826V30.8335C36.933 33.9263 34.4258 36.4335 31.333 36.4335H8.93301C5.84021 36.4335 3.33301 33.9263 3.33301 30.8335V15.7826C3.33301 15.0015 3.71612 14.2699 4.3585 13.8229L8.44819 10.9767C8.81084 10.7244 9.30942 10.8138 9.5618 11.1764C9.81418 11.5391 9.72479 12.0376 9.36213 12.29L5.27244 15.1361C5.06281 15.282 4.93711 15.518 4.93311 15.7702C5.1833 15.6818 5.45254 15.6337 5.73301 15.6337C6.16101 15.6337 6.58122 15.7481 6.9501 15.9652L20.133 23.7219L33.3159 15.9652C33.9513 15.5914 34.6882 15.5433 35.3329 15.7709C35.3291 15.5184 35.2034 15.2822 34.9936 15.1361L31.021 12.3715C30.6583 12.1191 30.5689 11.6205 30.8213 11.2579C31.0737 10.8952 31.5723 10.8058 31.9349 11.0582L35.9075 13.8229C36.5499 14.2699 36.933 15.0015 36.933 15.7826Z" fill="#E82583"/>
<path fill-rule="evenodd" clip-rule="evenodd" d="M8.33301 15.3333V7.33331C8.33301 5.12417 10.1239 3.33331 12.333 3.33331H28.333C30.5421 3.33331 32.333 5.12417 32.333 7.33331V15.3333L20.333 22.5333L8.33301 15.3333ZM15.533 11.3333H25.133C25.5748 11.3333 25.933 10.9751 25.933 10.5333C25.933 10.0915 25.5748 9.73331 25.133 9.73331H15.533C15.0912 9.73331 14.733 10.0915 14.733 10.5333C14.733 10.9751 15.0912 11.3333 15.533 11.3333ZM25.933 15.3333C25.933 15.7751 25.5748 16.1333 25.133 16.1333H15.533C15.0912 16.1333 14.733 15.7751 14.733 15.3333C14.733 14.8915 15.0912 14.5333 15.533 14.5333H25.133C25.5748 14.5333 25.933 14.8915 25.933 15.3333Z" fill="#E82583"/>
</svg>
