<svg width="40" height="40" viewBox="0 0 40 40" fill="none" xmlns="http://www.w3.org/2000/svg">
<path d="M15.0877 18.535L20.6111 24.3636C21.2099 24.9955 22.2945 25.0857 23.5027 24.4902C26.5777 23.2154 27.6007 22.9046 28.1848 23.5209L34.534 30.2208C35.2846 31.0128 35.0843 32.332 34.245 33.2176C29.887 37.8163 22.8037 37.8163 18.4458 33.2176L6.5851 20.7019C2.24898 16.1262 2.24898 8.7237 6.5851 4.14807C7.44209 3.24376 8.75815 3.02125 9.53695 3.84307L15.8862 10.543C16.4365 11.1237 16.1414 12.2053 14.9399 15.4281C14.3814 16.6861 14.4709 17.8842 15.0877 18.535Z" fill="#E82583"/>
</svg>
