<svg width="30" height="30" viewBox="0 0 30 30" fill="none" xmlns="http://www.w3.org/2000/svg">
<rect width="30" height="30" rx="1.66667" fill="#E82583"/>
<path d="M5.88558 6.66669H24.1147C25.5235 6.66669 26.6668 7.75558 26.6668 9.09724V20.9028C26.6668 21.5474 26.398 22.1656 25.9193 22.6215C25.4407 23.0773 24.7916 23.3334 24.1147 23.3334H5.88558C5.20872 23.3334 4.55959 23.0773 4.08098 22.6215C3.60238 22.1656 3.3335 21.5474 3.3335 20.9028V9.09724C3.3335 7.75558 4.47683 6.66669 5.88558 6.66669ZM5.521 20.9042C5.521 21.0959 5.68433 21.2514 5.88558 21.2514H24.1147C24.2114 21.2514 24.3042 21.2148 24.3725 21.1497C24.4409 21.0846 24.4793 20.9963 24.4793 20.9042V11.957L15.5543 16.9403C15.3863 17.0343 15.195 17.0839 15.0002 17.0839C14.8053 17.0839 14.614 17.0343 14.446 16.9403L5.521 11.957V20.9042ZM24.4793 9.54169V9.09724C24.4793 9.00515 24.4409 8.91684 24.3725 8.85172C24.3042 8.7866 24.2114 8.75002 24.1147 8.75002H5.88558C5.78889 8.75002 5.69615 8.7866 5.62778 8.85172C5.55941 8.91684 5.521 9.00515 5.521 9.09724V9.54169L15.0002 14.8334L24.4793 9.54169Z" fill="white"/>
</svg>
