<svg width="30" height="30" viewBox="0 0 30 30" fill="none" xmlns="http://www.w3.org/2000/svg">
<rect width="30" height="30" rx="1.66667" fill="white"/>
<path d="M5.88607 6.66668H24.1152C25.524 6.66668 26.6673 7.75556 26.6673 9.09723V20.9028C26.6673 21.5474 26.3984 22.1656 25.9198 22.6214C25.4412 23.0773 24.7921 23.3333 24.1152 23.3333H5.88607C5.20921 23.3333 4.56008 23.0773 4.08147 22.6214C3.60286 22.1656 3.33398 21.5474 3.33398 20.9028V9.09723C3.33398 7.75556 4.47732 6.66668 5.88607 6.66668ZM5.52148 20.9042C5.52148 21.0958 5.68482 21.2514 5.88607 21.2514H24.1152C24.2119 21.2514 24.3047 21.2148 24.373 21.1497C24.4414 21.0846 24.4798 20.9963 24.4798 20.9042V11.957L15.5548 16.9403C15.3868 17.0343 15.1955 17.0839 15.0007 17.0839C14.8058 17.0839 14.6145 17.0343 14.4465 16.9403L5.52148 11.957V20.9042ZM24.4798 9.54168V9.09723C24.4798 9.00514 24.4414 8.91682 24.373 8.85171C24.3047 8.78659 24.2119 8.75001 24.1152 8.75001H5.88607C5.78937 8.75001 5.69664 8.78659 5.62827 8.85171C5.5599 8.91682 5.52148 9.00514 5.52148 9.09723V9.54168L15.0007 14.8333L24.4798 9.54168Z" fill="#E82583"/>
</svg>
