<svg width="15" height="15" viewBox="0 0 15 15" fill="none" xmlns="http://www.w3.org/2000/svg">
<path d="M4.76699 11.75V11.65H4.66699H1.83366C1.48446 11.65 1.14956 11.5113 0.902635 11.2643C0.655712 11.0174 0.516992 10.6825 0.516992 10.3333V1.83332C0.516992 1.48412 0.655712 1.14922 0.902635 0.902299C1.14956 0.655376 1.48446 0.516656 1.83366 0.516656H13.167C13.5162 0.516656 13.8511 0.655376 14.098 0.902299C14.3449 1.14922 14.4837 1.48412 14.4837 1.83332V10.3333C14.4837 10.6825 14.3449 11.0174 14.098 11.2643C13.8511 11.5113 13.5162 11.65 13.167 11.65H8.84616H8.80466L8.77535 11.6794L6.15551 14.3063C6.03158 14.4236 5.87919 14.4833 5.72949 14.4833H5.37533C5.21399 14.4833 5.05925 14.4192 4.94517 14.3051C4.83108 14.1911 4.76699 14.0363 4.76699 13.875V11.75ZM8.30675 10.4333H13.167H13.267V10.3333V1.83332V1.73332H13.167H1.83366H1.73366V1.83332V10.3333V10.4333H1.83366H5.98366V12.515V12.7564L6.15437 12.5857L8.30675 10.4333ZM10.942 6.69166H9.72533V5.47499H10.942V6.69166ZM8.10866 6.69166H6.89199V5.47499H8.10866V6.69166ZM5.27533 6.69166H4.05866V5.47499H5.27533V6.69166Z" fill="#292D32" stroke="white" stroke-width="0.2"/>
</svg>
