<svg width="78" height="94" viewBox="0 0 78 94" fill="none" xmlns="http://www.w3.org/2000/svg">
<path d="M28.3172 0.359985C22.0789 0.359985 17.2741 6.03542 17.8455 12.3968L20.8102 45.2899C20.899 46.2746 21.5455 46.9901 22.0152 47.8074C20.5623 48.5208 19.3722 49.6861 18.6281 51.1116C14.5484 50.4901 11.44 47.021 11.44 42.76C13.1602 42.76 14.7671 42.0529 15.9202 40.8801C17.0929 39.7271 17.8 38.1202 17.8 36.4C17.8 35.2442 17.4879 34.1515 16.9346 33.2076C15.8317 31.321 13.7707 30.04 11.44 30.04H7.2C5.47983 30.04 3.87286 30.7471 2.71984 31.9198C1.54711 33.0728 0.839996 34.6798 0.839996 36.4C0.839996 39.8883 3.71163 42.76 7.2 42.76C7.2 49.0663 11.8515 54.3215 17.8911 55.3019C18.3374 58.9598 21.4492 61.84 25.22 61.84H36.88V68.2H34.76C34.1978 68.2 33.6586 68.4234 33.261 68.821C32.8634 69.2185 32.6401 69.7577 32.64 70.32V78.8C29.1403 78.8 25.5928 80.1506 22.777 82.3568C19.9613 84.563 17.8 87.7643 17.8 91.52C17.796 91.8009 17.8479 92.0798 17.9527 92.3405C18.0574 92.6012 18.213 92.8385 18.4102 93.0385C18.6075 93.2386 18.8425 93.3975 19.1017 93.5059C19.3609 93.6143 19.639 93.6702 19.92 93.6702C20.2009 93.6702 20.4791 93.6143 20.7383 93.5059C20.9975 93.3975 21.2325 93.2386 21.4298 93.0385C21.627 92.8385 21.7826 92.6012 21.8873 92.3405C21.9921 92.0798 22.044 91.8009 22.04 91.52C22.04 89.4223 23.313 87.3246 25.3939 85.6941C27.4748 84.0637 30.2864 83.04 32.64 83.04H34.76H36.88V91.52C36.876 91.8009 36.9279 92.0798 37.0327 92.3405C37.1374 92.6012 37.293 92.8385 37.4902 93.0385C37.6875 93.2386 37.9225 93.3975 38.1817 93.5059C38.4409 93.6143 38.719 93.6702 39 93.6702C39.2809 93.6702 39.5591 93.6143 39.8183 93.5059C40.0775 93.3975 40.3125 93.2386 40.5098 93.0385C40.707 92.8385 40.8626 92.6012 40.9673 92.3405C41.0721 92.0798 41.124 91.8009 41.12 91.52V83.04H43.24H45.36C47.7136 83.04 50.5252 84.0637 52.6061 85.6941C54.687 87.3246 55.96 89.4223 55.96 91.52C55.956 91.8009 56.0079 92.0798 56.1127 92.3405C56.2174 92.6012 56.373 92.8385 56.5702 93.0385C56.7675 93.2386 57.0025 93.3975 57.2617 93.5059C57.5209 93.6143 57.799 93.6702 58.08 93.6702C58.3609 93.6702 58.6391 93.6143 58.8983 93.5059C59.1575 93.3975 59.3925 93.2386 59.5898 93.0385C59.787 92.8385 59.9426 92.6012 60.0473 92.3405C60.1521 92.0798 60.204 91.8009 60.2 91.52C60.2 87.7643 58.0387 84.563 55.223 82.3568C52.4072 80.1506 48.8597 78.8 45.36 78.8V70.32C45.3599 69.7577 45.1366 69.2185 44.739 68.821C44.3414 68.4234 43.8022 68.2 43.24 68.2H41.12V61.84H52.78C56.5508 61.84 59.6626 58.9598 60.1089 55.3019C66.1485 54.3215 70.8 49.0663 70.8 42.76C72.5202 42.76 74.1271 42.0529 75.2802 40.8801C76.4529 39.7271 77.16 38.1202 77.16 36.4C77.16 32.9116 74.2884 30.04 70.8 30.04H66.56C64.8398 30.04 63.2329 30.7471 62.0798 31.9198C61.6369 32.3449 61.3091 32.7986 61.0737 33.191C61.0709 33.1965 61.0681 33.202 61.0654 33.2076C60.5121 34.1515 60.2 35.2442 60.2 36.4C60.2 39.8883 63.0716 42.76 66.56 42.76C66.56 47.021 63.4515 50.4901 59.3719 51.1116C58.6278 49.6861 57.4377 48.5208 55.9848 47.8074C56.4543 46.9907 57.1051 46.2741 57.1939 45.2899L60.1544 12.3968C60.7259 6.03542 55.921 0.359985 49.6828 0.359985H28.3172ZM28.3172 4.59999H49.6828C53.345 4.59999 56.2966 7.94681 55.931 12.0158L52.9705 44.909C52.8562 46.175 51.9282 47 50.9002 47H27.0998C26.0718 47 25.144 46.1792 25.0295 44.909L22.069 12.0158C21.7034 7.94681 24.655 4.59999 28.3172 4.59999ZM7.2 34.28H11.44C12.2448 34.28 12.8966 34.6936 13.2784 35.3483V35.3524C13.4459 35.638 13.56 36.0294 13.56 36.4C13.56 37.0006 13.3336 37.498 12.9513 37.8699C12.9373 37.8835 12.9235 37.8973 12.9099 37.9113C12.538 38.2936 12.0407 38.52 11.44 38.52H9.67609C9.44715 38.4821 9.21355 38.4821 8.9846 38.52H7.2C6.02436 38.52 5.08 37.5756 5.08 36.4C5.08 35.7993 5.30642 35.302 5.68867 34.9301C5.70266 34.9165 5.71646 34.9026 5.73007 34.8887C6.102 34.5064 6.59933 34.28 7.2 34.28ZM66.56 34.28H70.8C71.9756 34.28 72.92 35.2243 72.92 36.4C72.92 37.0006 72.6936 37.498 72.3113 37.8699C72.2973 37.8835 72.2835 37.8973 72.2699 37.9113C71.898 38.2936 71.4007 38.52 70.8 38.52H69.0361C68.8071 38.4821 68.5735 38.4821 68.3446 38.52H66.56C65.3844 38.52 64.44 37.5756 64.44 36.4C64.44 36.0294 64.5541 35.6381 64.7216 35.3524C64.8467 35.1472 64.9403 35.0292 65.0073 34.9673C65.0356 34.9419 65.0632 34.9156 65.0901 34.8887C65.462 34.5064 65.9593 34.28 66.56 34.28ZM25.22 51.24H27.0998H50.9002H52.78C54.5625 51.24 55.96 52.6375 55.96 54.42C55.96 56.2025 54.5625 57.6 52.78 57.6H39.3561C39.1271 57.5621 38.8935 57.5621 38.6646 57.6H25.22C23.4375 57.6 22.04 56.2025 22.04 54.42C22.04 52.6375 23.4375 51.24 25.22 51.24ZM36.88 72.44H38.6439C38.8728 72.4778 39.1064 72.4778 39.3354 72.44H41.12V78.8H39.3561C39.1271 78.7621 38.8935 78.7621 38.6646 78.8H36.88V72.44Z" fill="#E82583"/>
</svg>
