<svg width="15" height="15" viewBox="0 0 15 15" fill="none" xmlns="http://www.w3.org/2000/svg">
<path d="M5 3.59375C4.74375 3.59375 4.53125 3.38125 4.53125 3.125V1.25C4.53125 0.99375 4.74375 0.78125 5 0.78125C5.25625 0.78125 5.46875 0.99375 5.46875 1.25V3.125C5.46875 3.38125 5.25625 3.59375 5 3.59375Z" fill="#292D32"/>
<path d="M10 3.59375C9.74375 3.59375 9.53125 3.38125 9.53125 3.125V1.25C9.53125 0.99375 9.74375 0.78125 10 0.78125C10.2563 0.78125 10.4688 0.99375 10.4688 1.25V3.125C10.4688 3.38125 10.2563 3.59375 10 3.59375Z" fill="#292D32"/>
<path d="M10 14.2188H5C2.71875 14.2188 1.40625 12.9062 1.40625 10.625V5.3125C1.40625 3.03125 2.71875 1.71875 5 1.71875H10C12.2812 1.71875 13.5938 3.03125 13.5938 5.3125V10.625C13.5938 12.9062 12.2812 14.2188 10 14.2188ZM5 2.65625C3.2125 2.65625 2.34375 3.525 2.34375 5.3125V10.625C2.34375 12.4125 3.2125 13.2812 5 13.2812H10C11.7875 13.2812 12.6562 12.4125 12.6562 10.625V5.3125C12.6562 3.525 11.7875 2.65625 10 2.65625H5Z" fill="#292D32"/>
<path d="M10 7.34375H5C4.74375 7.34375 4.53125 7.13125 4.53125 6.875C4.53125 6.61875 4.74375 6.40625 5 6.40625H10C10.2562 6.40625 10.4688 6.61875 10.4688 6.875C10.4688 7.13125 10.2562 7.34375 10 7.34375Z" fill="#292D32"/>
<path d="M7.5 10.4688H5C4.74375 10.4688 4.53125 10.2563 4.53125 10C4.53125 9.74375 4.74375 9.53125 5 9.53125H7.5C7.75625 9.53125 7.96875 9.74375 7.96875 10C7.96875 10.2563 7.75625 10.4688 7.5 10.4688Z" fill="#292D32"/>
</svg>
