<svg width="30" height="30" viewBox="0 0 30 30" fill="none" xmlns="http://www.w3.org/2000/svg">
<rect width="30" height="30" rx="1.66667" fill="#E82583"/>
<path d="M22.2364 18.2748L19.6912 17.9842C19.392 17.949 19.0886 17.9822 18.804 18.0811C18.5194 18.18 18.2609 18.3422 18.0479 18.5553L16.2042 20.3991C13.3597 18.9524 11.0476 16.6403 9.60092 13.7957L11.4547 11.942C11.8855 11.5111 12.0959 10.9099 12.0258 10.2987L11.7352 7.77358C11.6784 7.28477 11.4438 6.83392 11.0761 6.50687C10.7084 6.17982 10.2333 5.99942 9.7412 6H8.00771C6.87544 6 5.93354 6.9419 6.00368 8.07419C6.53475 16.6315 13.3785 23.4652 21.9257 23.9963C23.058 24.0665 23.9999 23.1246 23.9999 21.9923V20.2588C24.0099 19.2467 23.2484 18.395 22.2364 18.2748Z" fill="white"/>
</svg>
