<svg width="16" height="15" viewBox="0 0 16 15" fill="none" xmlns="http://www.w3.org/2000/svg">
<path d="M8.30273 7.96875C6.32148 7.96875 4.70898 6.35625 4.70898 4.375C4.70898 2.39375 6.32148 0.78125 8.30273 0.78125C10.284 0.78125 11.8965 2.39375 11.8965 4.375C11.8965 6.35625 10.284 7.96875 8.30273 7.96875ZM8.30273 1.71875C6.84023 1.71875 5.64648 2.9125 5.64648 4.375C5.64648 5.8375 6.84023 7.03125 8.30273 7.03125C9.76523 7.03125 10.959 5.8375 10.959 4.375C10.959 2.9125 9.76523 1.71875 8.30273 1.71875Z" fill="#292D32"/>
<path d="M13.6711 14.2188C13.4148 14.2188 13.2023 14.0062 13.2023 13.75C13.2023 11.5938 11.0023 9.84375 8.30234 9.84375C5.60234 9.84375 3.40234 11.5938 3.40234 13.75C3.40234 14.0062 3.18984 14.2188 2.93359 14.2188C2.67734 14.2188 2.46484 14.0062 2.46484 13.75C2.46484 11.0812 5.08359 8.90625 8.30234 8.90625C11.5211 8.90625 14.1398 11.0812 14.1398 13.75C14.1398 14.0062 13.9273 14.2188 13.6711 14.2188Z" fill="#292D32"/>
</svg>
