<svg width="169" height="49" viewBox="0 0 169 49" fill="none" xmlns="http://www.w3.org/2000/svg">
<path d="M167.277 42.9902C167.277 45.5799 165.136 47.6776 162.487 47.6776H5.73087C3.08347 47.6776 0.93457 45.5799 0.93457 42.9902V5.61032C0.93457 3.02188 3.08347 0.91687 5.73087 0.91687H162.486C165.136 0.91687 167.276 3.02188 167.276 5.61032L167.277 42.9902Z" fill="black"/>
<path d="M161.981 0.973402C164.866 0.973402 167.213 3.2619 167.213 6.0743V42.5201C167.213 45.3325 164.866 47.621 161.981 47.621H6.23006C3.34554 47.621 0.998366 45.3325 0.998366 42.5201V6.0743C0.998366 3.2619 3.34554 0.973402 6.23006 0.973402H161.981ZM161.981 -2.80305e-06H6.23006C2.80508 -2.80305e-06 0 2.73495 0 6.0743V42.5201C0 45.8595 2.80508 48.5944 6.23006 48.5944H161.981C165.406 48.5944 168.212 45.8595 168.212 42.5201V6.0743C168.212 2.73495 165.406 -2.80305e-06 161.981 -2.80305e-06Z" fill="#A6A6A6"/>
<path d="M37.5395 24.0348C37.5033 20.1193 40.8277 18.2144 40.9797 18.1257C39.097 15.4494 36.1788 15.0837 35.1533 15.0545C32.7024 14.8031 30.325 16.4844 29.0765 16.4844C27.8031 16.4844 25.8805 15.0788 23.8084 15.1201C21.1419 15.1602 18.6474 16.6654 17.2793 19.0028C14.4558 23.7687 16.5616 30.7724 19.2667 34.6247C20.6199 36.5114 22.201 38.618 24.2707 38.5439C26.2954 38.4625 27.0518 37.2853 29.4952 37.2853C31.9162 37.2853 32.6264 38.5439 34.7372 38.4965C36.9102 38.4625 38.2783 36.6013 39.5842 34.6976C41.1479 32.5352 41.7759 30.4055 41.8008 30.2962C41.7497 30.2792 37.5806 28.7278 37.5395 24.0348Z" fill="white"/>
<path d="M33.5522 12.5203C34.6412 11.1925 35.3863 9.386 35.1795 7.55278C33.6033 7.62081 31.6321 8.61578 30.497 9.91447C29.4927 11.0589 28.5956 12.9346 28.8273 14.6986C30.5979 14.8274 32.4159 13.8275 33.5522 12.5203Z" fill="white"/>
<path d="M66.8427 38.273H64.013L62.463 33.5241H57.0752L55.5987 38.273H52.8438L58.1817 22.1056H61.4786L66.8427 38.273ZM61.9957 31.5317L60.5939 27.31C60.4457 26.8788 60.1678 25.8631 59.7579 24.2644H59.708C59.5448 24.952 59.2819 25.9676 58.9205 27.31L57.5437 31.5317H61.9957Z" fill="white"/>
<path d="M80.5701 32.3007C80.5701 34.2834 80.0206 35.8505 78.9216 37.001C77.9372 38.0252 76.7149 38.5366 75.2558 38.5366C73.6809 38.5366 72.5495 37.9851 71.8604 36.882H71.8106V43.0231H69.1541V30.4529C69.1541 29.2065 69.1205 27.9272 69.0557 26.6152H71.3919L71.5402 28.463H71.5901C72.476 27.0707 73.8204 26.3758 75.6246 26.3758C77.0351 26.3758 78.2126 26.9189 79.1546 28.0062C80.0991 29.0947 80.5701 30.5258 80.5701 32.3007ZM77.8637 32.3955C77.8637 31.2608 77.6021 30.3254 77.0762 29.5892C76.5018 28.8214 75.7305 28.4375 74.7636 28.4375C74.1082 28.4375 73.5126 28.6513 72.9806 29.0728C72.4473 29.498 72.0984 30.0532 71.9352 30.7408C71.853 31.0616 71.8118 31.324 71.8118 31.5305V33.4743C71.8118 34.3223 72.0785 35.0378 72.6118 35.6222C73.1451 36.2065 73.8379 36.4981 74.6901 36.4981C75.6907 36.4981 76.4694 36.1215 77.0264 35.3707C77.5846 34.6187 77.8637 33.6274 77.8637 32.3955Z" fill="white"/>
<path d="M94.3227 32.3007C94.3227 34.2834 93.7732 35.8505 92.673 37.001C91.6899 38.0252 90.4676 38.5366 89.0085 38.5366C87.4335 38.5366 86.3021 37.9851 85.6143 36.882H85.5645V43.0231H82.908V30.4529C82.908 29.2065 82.8744 27.9272 82.8096 26.6152H85.1458L85.2941 28.463H85.344C86.2286 27.0707 87.5731 26.3758 89.3785 26.3758C90.7878 26.3758 91.9653 26.9189 92.9097 28.0062C93.8505 29.0947 94.3227 30.5258 94.3227 32.3007ZM91.6164 32.3955C91.6164 31.2608 91.3535 30.3254 90.8277 29.5892C90.2532 28.8214 89.4845 28.4375 88.5163 28.4375C87.8597 28.4375 87.2653 28.6513 86.732 29.0728C86.1987 29.498 85.8511 30.0532 85.6879 30.7408C85.6069 31.0616 85.5645 31.324 85.5645 31.5305V33.4743C85.5645 34.3223 85.8311 35.0378 86.3619 35.6222C86.8952 36.2053 87.588 36.4981 88.4428 36.4981C89.4433 36.4981 90.2221 36.1215 90.7791 35.3707C91.3373 34.6187 91.6164 33.6274 91.6164 32.3955Z" fill="white"/>
<path d="M109.698 33.7391C109.698 35.1143 109.209 36.2332 108.225 37.097C107.145 38.0409 105.641 38.5123 103.709 38.5123C101.924 38.5123 100.494 38.177 99.4111 37.5052L100.027 35.3464C101.193 36.034 102.473 36.379 103.867 36.379C104.867 36.379 105.646 36.1579 106.206 35.7181C106.763 35.2783 107.04 34.6879 107.04 33.9517C107.04 33.2957 106.811 32.7429 106.351 32.2946C105.894 31.8464 105.13 31.4297 104.064 31.0446C101.161 29.9888 99.7102 28.4423 99.7102 26.4086C99.7102 25.0796 100.219 23.9899 101.237 23.1419C102.251 22.2927 103.604 21.8687 105.296 21.8687C106.805 21.8687 108.058 22.125 109.059 22.6365L108.395 24.7479C107.46 24.2523 106.404 24.0044 105.221 24.0044C104.287 24.0044 103.557 24.2292 103.033 24.6763C102.591 25.0759 102.369 25.5631 102.369 26.1402C102.369 26.7792 102.622 27.3076 103.13 27.7231C103.573 28.107 104.376 28.5225 105.543 28.9708C106.969 29.5308 108.017 30.1856 108.691 30.9364C109.363 31.6848 109.698 32.6214 109.698 33.7391Z" fill="white"/>
<path d="M118.481 28.5589H115.553V34.219C115.553 35.6586 116.069 36.3778 117.103 36.3778C117.578 36.3778 117.971 36.3377 118.283 36.2575L118.356 38.2244C117.833 38.4151 117.144 38.5111 116.29 38.5111C115.241 38.5111 114.421 38.1988 113.83 37.5756C113.24 36.9512 112.944 35.904 112.944 34.4328V28.5565H111.199V26.6127H112.944V24.4782L115.553 23.7104V26.6127H118.481V28.5589Z" fill="white"/>
<path d="M131.693 32.3481C131.693 34.14 131.167 35.6112 130.118 36.7617C129.018 37.9462 127.557 38.5366 125.737 38.5366C123.982 38.5366 122.586 37.9692 121.544 36.8346C120.502 35.6999 119.981 34.2676 119.981 32.5412C119.981 30.7348 120.517 29.2551 121.593 28.1046C122.665 26.9529 124.113 26.377 125.934 26.377C127.688 26.377 129.1 26.9444 130.165 28.0803C131.184 29.1822 131.693 30.6048 131.693 32.3481ZM128.937 32.4319C128.937 31.3568 128.701 30.4347 128.224 29.6657C127.667 28.7351 126.871 28.271 125.839 28.271C124.771 28.271 123.96 28.7363 123.403 29.6657C122.926 30.4359 122.69 31.3726 122.69 32.4805C122.69 33.5557 122.926 34.4777 123.403 35.2455C123.977 36.1761 124.78 36.6402 125.815 36.6402C126.83 36.6402 127.626 36.1664 128.2 35.2212C128.69 34.4376 128.937 33.5058 128.937 32.4319Z" fill="white"/>
<path d="M140.328 28.893C140.065 28.8457 139.784 28.8214 139.49 28.8214C138.556 28.8214 137.833 29.1652 137.325 29.854C136.882 30.4614 136.661 31.2292 136.661 32.1562V38.273H134.005L134.03 30.2865C134.03 28.9428 133.997 27.7195 133.931 26.6164H136.245L136.342 28.8469H136.415C136.696 28.0803 137.138 27.4631 137.743 27.0003C138.335 26.5836 138.975 26.3758 139.664 26.3758C139.909 26.3758 140.131 26.3929 140.328 26.4232V28.893Z" fill="white"/>
<path d="M152.208 31.8925C152.208 32.3566 152.177 32.7478 152.111 33.0673H144.141C144.172 34.219 144.558 35.0997 145.298 35.7072C145.969 36.2502 146.838 36.5223 147.904 36.5223C149.084 36.5223 150.161 36.3389 151.129 35.9708L151.545 37.7688C150.414 38.2499 149.078 38.4892 147.537 38.4892C145.683 38.4892 144.227 37.9571 143.168 36.8941C142.112 35.8311 141.582 34.4036 141.582 32.6129C141.582 30.855 142.074 29.3911 143.06 28.2236C144.092 26.9772 145.486 26.354 147.24 26.354C148.963 26.354 150.268 26.9772 151.154 28.2236C151.855 29.2137 152.208 30.4383 152.208 31.8925ZM149.675 31.2207C149.692 30.4529 149.519 29.7896 149.159 29.2295C148.699 28.5091 147.993 28.1495 147.042 28.1495C146.174 28.1495 145.467 28.5006 144.928 29.2052C144.485 29.7653 144.222 30.4371 144.141 31.2195H149.675V31.2207Z" fill="white"/>
<path d="M61.117 12.1596C61.117 13.5895 60.6771 14.6658 59.7987 15.3887C58.985 16.0556 57.8287 16.3897 56.331 16.3897C55.5884 16.3897 54.9529 16.3581 54.4209 16.295V8.48219C55.1149 8.37285 55.8625 8.31697 56.67 8.31697C58.0966 8.31697 59.1719 8.61947 59.8971 9.22447C60.7095 9.90844 61.117 10.8864 61.117 12.1596ZM59.7401 12.1948C59.7401 11.2679 59.4884 10.5572 58.985 10.0615C58.4817 9.56706 57.7465 9.31923 56.7784 9.31923C56.3672 9.31923 56.017 9.34596 55.7267 9.40184V15.3413C55.8875 15.3656 56.1815 15.3765 56.6089 15.3765C57.6082 15.3765 58.3795 15.1056 58.9227 14.5638C59.466 14.022 59.7401 13.2323 59.7401 12.1948Z" fill="white"/>
<path d="M68.4169 13.4084C68.4169 14.2892 68.159 15.0108 67.6431 15.577C67.1024 16.1589 66.3859 16.4492 65.4913 16.4492C64.629 16.4492 63.9425 16.171 63.4304 15.6122C62.9195 15.0546 62.6641 14.3512 62.6641 13.5032C62.6641 12.6163 62.927 11.8886 63.4553 11.3237C63.9836 10.7588 64.6938 10.4758 65.5885 10.4758C66.4507 10.4758 67.1435 10.754 67.668 11.3116C68.1665 11.8534 68.4169 12.5532 68.4169 13.4084ZM67.0625 13.4497C67.0625 12.9213 66.9454 12.4681 66.7124 12.0903C66.4382 11.6335 66.0482 11.4051 65.5411 11.4051C65.0165 11.4051 64.6178 11.6335 64.3437 12.0903C64.1094 12.4681 63.9936 12.9286 63.9936 13.4728C63.9936 14.0013 64.1107 14.4544 64.3437 14.8322C64.6265 15.289 65.0203 15.5174 65.5286 15.5174C66.027 15.5174 66.4183 15.2854 66.6999 14.8201C66.9416 14.435 67.0625 13.9782 67.0625 13.4497Z" fill="white"/>
<path d="M78.2056 10.5924L76.3677 16.3192H75.1715L74.4102 13.8324C74.2171 13.2116 74.0601 12.5945 73.938 11.9822H73.9143C73.8009 12.6115 73.6439 13.2274 73.4421 13.8324L72.6334 16.3192H71.4235L69.6953 10.5924H71.0373L71.7014 13.3149C71.8621 13.9588 71.9942 14.5723 72.1001 15.153H72.1238C72.221 14.6743 72.3817 14.0645 72.6085 13.327L73.4421 10.5936H74.5062L75.3049 13.2687C75.498 13.9211 75.655 14.5492 75.7758 15.1542H75.812C75.9004 14.565 76.0338 13.9369 76.2107 13.2687L76.9234 10.5936H78.2056V10.5924Z" fill="white"/>
<path d="M84.9757 16.3193H83.6698V13.0391C83.6698 12.0284 83.2761 11.523 82.4861 11.523C82.0986 11.523 81.7859 11.6615 81.5429 11.9397C81.3024 12.2179 81.1803 12.5459 81.1803 12.9213V16.318H79.8745V12.2288C79.8745 11.7259 79.8583 11.1804 79.8271 10.59H80.9747L81.0358 11.4853H81.0719C81.2239 11.2071 81.4507 10.9775 81.7485 10.7941C82.1024 10.5802 82.4986 10.4721 82.9322 10.4721C83.4804 10.4721 83.9365 10.6446 84.2991 10.9909C84.7501 11.4149 84.9757 12.0478 84.9757 12.8885V16.3193Z" fill="white"/>
<path d="M88.576 16.3192H87.2715V7.96464H88.576V16.3192Z" fill="white"/>
<path d="M96.2636 13.4084C96.2636 14.2892 96.0057 15.0108 95.4898 15.577C94.949 16.1589 94.2313 16.4492 93.3379 16.4492C92.4745 16.4492 91.7879 16.171 91.277 15.6122C90.7662 15.0546 90.5107 14.3512 90.5107 13.5032C90.5107 12.6163 90.7737 11.8886 91.302 11.3237C91.8303 10.7588 92.5405 10.4758 93.4339 10.4758C94.2974 10.4758 94.9889 10.754 95.5147 11.3116C96.0131 11.8534 96.2636 12.5532 96.2636 13.4084ZM94.9079 13.4497C94.9079 12.9213 94.7908 12.4681 94.5578 12.0903C94.2849 11.6335 93.8937 11.4051 93.3878 11.4051C92.862 11.4051 92.4632 11.6335 92.1904 12.0903C91.9561 12.4681 91.8402 12.9286 91.8402 13.4728C91.8402 14.0013 91.9574 14.4544 92.1904 14.8322C92.4732 15.289 92.867 15.5174 93.3753 15.5174C93.8737 15.5174 94.2637 15.2854 94.5453 14.8201C94.7883 14.435 94.9079 13.9782 94.9079 13.4497Z" fill="white"/>
<path d="M102.584 16.3192H101.411L101.314 15.6596H101.278C100.877 16.1856 100.305 16.4492 99.5622 16.4492C99.0077 16.4492 98.5592 16.2755 98.2215 15.9305C97.915 15.617 97.7617 15.2271 97.7617 14.7642C97.7617 14.0645 98.0608 13.5311 98.6626 13.1618C99.2632 12.7925 100.108 12.6115 101.196 12.62V12.5131C101.196 11.7587 100.79 11.382 99.9759 11.382C99.3965 11.382 98.8856 11.5242 98.4445 11.806L98.1791 10.9702C98.7249 10.641 99.399 10.4758 100.194 10.4758C101.729 10.4758 102.499 11.2654 102.499 12.8447V14.9537C102.499 15.5259 102.528 15.9815 102.584 16.3192ZM101.228 14.3512V13.468C99.7877 13.4437 99.0675 13.8288 99.0675 14.6221C99.0675 14.9209 99.1498 15.1445 99.318 15.2939C99.4862 15.4433 99.7005 15.5174 99.9559 15.5174C100.243 15.5174 100.51 15.4287 100.755 15.2526C101 15.0752 101.151 14.8505 101.207 14.5747C101.221 14.5127 101.228 14.4374 101.228 14.3512Z" fill="white"/>
<path d="M110.004 16.3192H108.845L108.784 15.3996H108.748C108.377 16.0993 107.747 16.4492 106.861 16.4492C106.153 16.4492 105.564 16.1783 105.097 15.6365C104.629 15.0947 104.396 14.3913 104.396 13.5275C104.396 12.6005 104.649 11.8498 105.158 11.2763C105.65 10.7418 106.253 10.4745 106.971 10.4745C107.759 10.4745 108.311 10.7333 108.625 11.2521H108.65V7.96464H109.957V14.7764C109.957 15.334 109.972 15.8479 110.004 16.3192ZM108.65 13.9041V12.9492C108.65 12.784 108.638 12.6504 108.614 12.5483C108.541 12.2422 108.382 11.9846 108.142 11.7769C107.899 11.5691 107.606 11.4647 107.269 11.4647C106.781 11.4647 106.4 11.653 106.12 12.0308C105.842 12.4086 105.701 12.8909 105.701 13.4801C105.701 14.0462 105.834 14.5054 106.102 14.859C106.385 15.2356 106.766 15.4239 107.244 15.4239C107.672 15.4239 108.015 15.2672 108.275 14.9525C108.527 14.6622 108.65 14.3123 108.65 13.9041Z" fill="white"/>
<path d="M121.173 13.4084C121.173 14.2892 120.915 15.0108 120.399 15.577C119.858 16.1589 119.143 16.4492 118.247 16.4492C117.386 16.4492 116.7 16.171 116.186 15.6122C115.675 15.0546 115.42 14.3512 115.42 13.5032C115.42 12.6163 115.683 11.8886 116.211 11.3237C116.739 10.7588 117.45 10.4758 118.346 10.4758C119.207 10.4758 119.901 10.754 120.424 11.3116C120.922 11.8534 121.173 12.5532 121.173 13.4084ZM119.82 13.4497C119.82 12.9213 119.702 12.4681 119.469 12.0903C119.194 11.6335 118.805 11.4051 118.297 11.4051C117.774 11.4051 117.375 11.6335 117.1 12.0903C116.865 12.4681 116.749 12.9286 116.749 13.4728C116.749 14.0013 116.867 14.4544 117.1 14.8322C117.382 15.289 117.776 15.5174 118.285 15.5174C118.783 15.5174 119.175 15.2854 119.457 14.8201C119.697 14.435 119.82 13.9782 119.82 13.4497Z" fill="white"/>
<path d="M128.193 16.3193H126.889V13.0391C126.889 12.0284 126.495 11.523 125.704 11.523C125.316 11.523 125.003 11.6615 124.762 11.9397C124.52 12.2179 124.399 12.5459 124.399 12.9213V16.318H123.092V12.2288C123.092 11.7259 123.077 11.1804 123.046 10.59H124.192L124.253 11.4853H124.289C124.443 11.2071 124.669 10.9775 124.966 10.7941C125.321 10.5802 125.716 10.4721 126.151 10.4721C126.698 10.4721 127.154 10.6446 127.517 10.9909C127.969 11.4149 128.193 12.0478 128.193 12.8885V16.3193Z" fill="white"/>
<path d="M136.982 11.5461H135.544V14.3281C135.544 15.0351 135.799 15.3887 136.305 15.3887C136.539 15.3887 136.734 15.3692 136.887 15.3291L136.921 16.295C136.663 16.3897 136.324 16.4371 135.906 16.4371C135.39 16.4371 134.989 16.284 134.699 15.9779C134.407 15.6717 134.263 15.1566 134.263 14.4338V11.5461H133.404V10.5924H134.263V9.54275L135.542 9.16615V10.5912H136.98V11.5461H136.982Z" fill="white"/>
<path d="M143.894 16.3192H142.587V13.0634C142.587 12.0369 142.193 11.523 141.405 11.523C140.799 11.523 140.385 11.8206 140.159 12.4159C140.12 12.541 140.098 12.6941 140.098 12.8739V16.318H138.793V7.96464H140.098V11.4161H140.122C140.534 10.788 141.123 10.4745 141.887 10.4745C142.428 10.4745 142.875 10.6471 143.23 10.9933C143.672 11.4246 143.894 12.066 143.894 12.914V16.3192Z" fill="white"/>
<path d="M151.025 13.1849C151.025 13.4133 151.007 13.6053 150.976 13.762H147.06C147.077 14.3281 147.264 14.7594 147.627 15.0582C147.958 15.3255 148.386 15.4591 148.909 15.4591C149.488 15.4591 150.017 15.3692 150.493 15.1882L150.697 16.0726C150.14 16.3083 149.485 16.4262 148.726 16.4262C147.816 16.4262 147.1 16.165 146.581 15.6426C146.061 15.1202 145.803 14.4192 145.803 13.5396C145.803 12.6759 146.043 11.9567 146.528 11.3833C147.034 10.771 147.718 10.4648 148.581 10.4648C149.426 10.4648 150.068 10.771 150.501 11.3833C150.852 11.8692 151.025 12.4706 151.025 13.1849ZM149.779 12.8557C149.789 12.4779 149.703 12.1523 149.526 11.8777C149.299 11.5242 148.954 11.3468 148.487 11.3468C148.061 11.3468 147.713 11.5193 147.447 11.8656C147.231 12.1413 147.102 12.4706 147.06 12.8557H149.779Z" fill="white"/>
</svg>
