<svg width="74" height="74" viewBox="0 0 74 74" fill="none" xmlns="http://www.w3.org/2000/svg">
<circle cx="37" cy="37" r="37" fill="url(#paint0_linear_4_646)"/>
<path d="M54.875 54.875H19.125C18.7125 54.875 18.1625 54.6 17.8875 54.1875C17.6125 53.775 17.6125 53.225 17.8875 52.8125L20.6375 47.3125C20.9125 46.9 21.325 46.625 21.875 46.625H52.125C52.675 46.625 53.0875 46.9 53.3625 47.45L56.1125 52.95C56.3875 53.3625 56.25 53.9125 56.1125 54.325C55.975 54.7375 55.2875 54.875 54.875 54.875Z" fill="white"/>
<path d="M23.25 45.25C22.425 45.25 21.875 44.7 21.875 43.875V28.75C21.875 27.925 22.425 27.375 23.25 27.375H34.25C35.075 27.375 35.625 27.925 35.625 28.75C35.625 29.575 35.075 30.125 34.25 30.125H24.625V43.875C24.625 44.7 24.075 45.25 23.25 45.25Z" fill="white"/>
<path d="M50.75 45.25C49.925 45.25 49.375 44.7 49.375 43.875V30.125H39.75C38.925 30.125 38.375 29.575 38.375 28.75C38.375 27.925 38.925 27.375 39.75 27.375H50.75C51.575 27.375 52.125 27.925 52.125 28.75V43.875C52.125 44.7 51.575 45.25 50.75 45.25Z" fill="white"/>
<path d="M37 45.25C36.175 45.25 35.625 44.7 35.625 43.875V39.75C35.625 38.925 36.175 38.375 37 38.375C37.825 38.375 38.375 38.925 38.375 39.75V43.875C38.375 44.7 37.825 45.25 37 45.25Z" fill="white"/>
<path d="M45.1125 39.0625L41.125 32.4625V23.25C41.125 22.975 40.9875 22.7 40.85 22.425L38.1 18.3C37.55 17.475 36.3125 17.475 35.7625 18.3L33.0125 22.425C33.0125 22.7 32.875 22.975 32.875 23.25V32.4625L28.8875 39.0625C28.6125 39.475 28.6125 40.025 28.8875 40.4375C29.1625 40.85 29.575 41.125 30.125 41.125H32.875V39.75C32.875 37.4125 34.6625 35.625 37 35.625C39.3375 35.625 41.125 37.4125 41.125 39.75V41.125H43.875C44.425 41.125 44.8375 40.85 45.1125 40.4375C45.25 40.025 45.25 39.475 45.1125 39.0625Z" fill="white"/>
<defs>
<linearGradient id="paint0_linear_4_646" x1="37" y1="0" x2="37" y2="74" gradientUnits="userSpaceOnUse">
<stop stop-color="#E82583"/>
<stop offset="1" stop-color="#FF99CA"/>
</linearGradient>
</defs>
</svg>
