<svg width="71" height="71" viewBox="0 0 71 71" fill="none" xmlns="http://www.w3.org/2000/svg">
<g filter="url(#filter0_d_58_442)">
<rect x="17" y="11" width="37.5" height="37.5" rx="18.75" fill="#E82583"/>
</g>
<g clip-path="url(#clip0_58_442)">
<path d="M43.2368 30.5015H30.062L32.5302 32.9698C33.2392 33.6788 32.1757 34.7422 31.4668 34.0332L29.2188 31.7818L27.7182 30.2789C27.4274 29.9863 27.4274 29.5138 27.7182 29.2212L31.4668 25.4683C31.6094 25.3218 31.8057 25.2395 32.0102 25.2412C32.6854 25.2413 33.0167 26.0637 32.5302 26.5318L30.0561 29.0001H43.2756C44.3154 29.0517 44.2377 30.5533 43.2368 30.5015V30.5015Z" fill="white"/>
</g>
<defs>
<filter id="filter0_d_58_442" x="0.5" y="0.5" width="70.5" height="70.5" filterUnits="userSpaceOnUse" color-interpolation-filters="sRGB">
<feFlood flood-opacity="0" result="BackgroundImageFix"/>
<feColorMatrix in="SourceAlpha" type="matrix" values="0 0 0 0 0 0 0 0 0 0 0 0 0 0 0 0 0 0 127 0" result="hardAlpha"/>
<feOffset dy="6"/>
<feGaussianBlur stdDeviation="8.25"/>
<feColorMatrix type="matrix" values="0 0 0 0 0 0 0 0 0 0 0 0 0 0 0 0 0 0 0.12 0"/>
<feBlend mode="normal" in2="BackgroundImageFix" result="effect1_dropShadow_58_442"/>
<feBlend mode="normal" in="SourceGraphic" in2="effect1_dropShadow_58_442" result="shape"/>
</filter>
<clipPath id="clip0_58_442">
<rect width="18" height="18" fill="white" transform="matrix(-1 0 0 1 44.75 20.75)"/>
</clipPath>
</defs>
</svg>
