<svg width="104" height="104" viewBox="0 0 104 104" fill="none" xmlns="http://www.w3.org/2000/svg">
<path d="M52 26L58.214 38.0347L71.5 39.9653L61.75 48.75L65 61.75L52 54.4375L39 61.75L42.25 48.75L32.5 39.9653L46.15 38.0347L52 26Z" fill="white"/>
<path d="M57.642 97.5L52 94.25L65 71.5H84.5C85.354 71.5013 86.1998 71.334 86.989 71.0078C87.7782 70.6816 88.4952 70.2029 89.0991 69.5991C89.7029 68.9952 90.1816 68.2782 90.5078 67.489C90.834 66.6998 91.0013 65.854 91 65V26C91.0013 25.146 90.834 24.3002 90.5078 23.511C90.1816 22.7218 89.7029 22.0048 89.0991 21.4009C88.4952 20.7971 87.7782 20.3184 86.989 19.9922C86.1998 19.666 85.354 19.4987 84.5 19.5H19.5C18.646 19.4987 17.8002 19.666 17.011 19.9922C16.2218 20.3184 15.5048 20.7971 14.9009 21.4009C14.2971 22.0048 13.8184 22.7218 13.4922 23.511C13.166 24.3002 12.9987 25.146 13 26V65C12.9987 65.854 13.166 66.6998 13.4922 67.489C13.8184 68.2782 14.2971 68.9952 14.9009 69.5991C15.5048 70.2029 16.2218 70.6816 17.011 71.0078C17.8002 71.334 18.646 71.5013 19.5 71.5H48.75V78H19.5C16.0522 78 12.7456 76.6304 10.3076 74.1924C7.86964 71.7544 6.5 68.4478 6.5 65V26C6.49957 24.2927 6.83554 22.602 7.4887 21.0246C8.14186 19.4472 9.09941 18.0139 10.3067 16.8067C11.5139 15.5994 12.9472 14.6419 14.5246 13.9887C16.102 13.3355 17.7927 12.9996 19.5 13H84.5C86.2073 12.9996 87.898 13.3355 89.4754 13.9887C91.0528 14.6419 92.4861 15.5994 93.6933 16.8067C94.9006 18.0139 95.8581 19.4472 96.5113 21.0246C97.1645 22.602 97.5004 24.2927 97.5 26V65C97.5 68.4478 96.1304 71.7544 93.6924 74.1924C91.2544 76.6304 87.9478 78 84.5 78H68.7863L57.642 97.5Z" fill="white"/>
</svg>
