<svg width="1440" height="1643" viewBox="0 0 1440 1643" fill="none" xmlns="http://www.w3.org/2000/svg">
<path opacity="0.4" d="M642.882 369.682C583.791 173.624 761.815 126.158 858.213 126.932C1038.6 133.161 961.782 227.546 1107.15 297.509C1252.51 367.471 1102.52 389.897 1072.72 480.088C1042.93 570.28 1250.73 533.91 1191.93 698.429C1133.13 862.948 812.276 857.169 943.504 648.565C1074.73 439.96 716.745 614.754 642.882 369.682Z" stroke="#E82583" stroke-width="1.56458"/>
<path opacity="0.4" d="M706.104 392.668C660.661 241.635 797.605 205.059 871.758 205.649C1010.52 210.437 951.421 283.153 1063.24 337.042C1175.05 390.93 1059.67 408.215 1036.75 477.697C1013.82 547.18 1173.67 519.15 1128.43 645.893C1083.19 772.636 836.38 768.203 937.337 607.493C1038.29 446.784 762.908 581.459 706.104 392.668Z" stroke="#E82583" stroke-width="1.56458"/>
<path opacity="0.4" d="M584.352 348.21C512.646 110.04 728.712 52.3679 845.709 53.3028C1064.64 60.8588 971.403 175.524 1147.82 260.507C1324.25 345.49 1142.2 372.741 1106.03 482.309C1069.87 591.876 1322.07 547.682 1250.7 747.545C1179.33 947.408 789.914 940.405 949.195 686.983C1108.48 433.56 673.984 645.922 584.352 348.21Z" stroke="#E82583" stroke-width="1.56458"/>
<path opacity="0.4" d="M535.174 330.404C452.846 57.374 700.86 -8.72202 835.159 -7.64124C1086.47 1.03745 979.45 132.476 1181.97 229.909C1384.49 327.343 1175.52 358.568 1134.02 484.168C1092.51 609.767 1382.01 559.125 1300.1 788.231C1218.18 1017.34 771.181 1009.28 953.998 718.783C1136.81 428.286 638.085 671.692 535.174 330.404Z" stroke="#E82583" stroke-width="1.56458"/>
<path opacity="0.4" d="M464.945 304.51C367.492 -19.3401 661.162 -97.7672 820.178 -96.4994C1117.75 -86.2317 991.013 69.6871 1230.8 185.238C1470.58 300.789 1223.15 337.849 1173.99 486.835C1124.83 635.822 1467.62 575.721 1370.61 847.487C1273.59 1119.25 744.318 1109.74 960.813 765.147C1177.31 420.55 586.76 709.323 464.945 304.51Z" stroke="#E82583" stroke-width="1.56458"/>
<path opacity="0.4" d="M383.014 274.196C267.929 -109.182 614.867 -202.065 802.721 -200.584C1154.25 -188.466 1004.52 -3.86518 1287.77 132.9C1571.02 269.665 1278.72 313.57 1220.62 489.953C1162.53 666.337 1567.49 595.144 1452.85 916.887C1338.21 1238.63 712.952 1227.44 968.753 819.459C1224.55 411.481 526.871 753.418 383.014 274.196Z" stroke="#E82583" stroke-width="1.56458"/>
</svg>
