<svg width="98" height="98" viewBox="0 0 98 98" fill="none" xmlns="http://www.w3.org/2000/svg">
<g clip-path="url(#clip0_57_544)">
<mask id="path-1-inside-1_57_544" fill="white">
<path fill-rule="evenodd" clip-rule="evenodd" d="M61.2493 8.16663C62.3323 8.16663 63.3709 8.59683 64.1367 9.36261C64.9025 10.1284 65.3327 11.167 65.3327 12.25V16.3333H69.416C72.6649 16.3333 75.7807 17.6239 78.0781 19.9212C80.3754 22.2186 81.666 25.3344 81.666 28.5833V32.6666H85.7493C86.8323 32.6666 87.8709 33.0968 88.6367 33.8626C89.4025 34.6284 89.8327 35.667 89.8327 36.75C89.8327 37.8329 89.4025 38.8715 88.6367 39.6373C87.8709 40.4031 86.8323 40.8333 85.7493 40.8333H81.666V57.1666H85.7493C86.8323 57.1666 87.8709 57.5968 88.6367 58.3626C89.4025 59.1284 89.8327 60.167 89.8327 61.25C89.8327 62.3329 89.4025 63.3715 88.6367 64.1373C87.8709 64.9031 86.8323 65.3333 85.7493 65.3333H81.666V69.4166C81.666 72.6655 80.3754 75.7814 78.0781 78.0787C75.7807 80.376 72.6649 81.6666 69.416 81.6666H65.3327V85.75C65.3327 86.8329 64.9025 87.8715 64.1367 88.6373C63.3709 89.4031 62.3323 89.8333 61.2493 89.8333C60.1664 89.8333 59.1278 89.4031 58.362 88.6373C57.5962 87.8715 57.166 86.8329 57.166 85.75V81.6666H40.8327V85.75C40.8327 86.8329 40.4025 87.8715 39.6367 88.6373C38.8709 89.4031 37.8323 89.8333 36.7493 89.8333C35.6664 89.8333 34.6278 89.4031 33.862 88.6373C33.0962 87.8715 32.666 86.8329 32.666 85.75V81.6666H28.5827C25.3338 81.6666 22.2179 80.376 19.9206 78.0787C17.6233 75.7814 16.3327 72.6655 16.3327 69.4166V65.3333H12.2493C11.1664 65.3333 10.1278 64.9031 9.362 64.1373C8.59622 63.3715 8.16602 62.3329 8.16602 61.25C8.16602 60.167 8.59622 59.1284 9.362 58.3626C10.1278 57.5968 11.1664 57.1666 12.2493 57.1666H16.3327V40.8333H12.2493C11.1664 40.8333 10.1278 40.4031 9.362 39.6373C8.59622 38.8715 8.16602 37.8329 8.16602 36.75C8.16602 35.667 8.59622 34.6284 9.362 33.8626C10.1278 33.0968 11.1664 32.6666 12.2493 32.6666H16.3327V28.5833C16.3327 25.3344 17.6233 22.2186 19.9206 19.9212C22.2179 17.6239 25.3338 16.3333 28.5827 16.3333H32.666V12.25C32.666 11.167 33.0962 10.1284 33.862 9.36261C34.6278 8.59683 35.6664 8.16663 36.7493 8.16663C37.8323 8.16663 38.8709 8.59683 39.6367 9.36261C40.4025 10.1284 40.8327 11.167 40.8327 12.25V16.3333H57.166V12.25C57.166 11.167 57.5962 10.1284 58.362 9.36261C59.1278 8.59683 60.1664 8.16663 61.2493 8.16663ZM69.416 24.5H28.5827C27.4997 24.5 26.4611 24.9302 25.6953 25.6959C24.9296 26.4617 24.4993 27.5003 24.4993 28.5833V69.4166C24.4993 70.4996 24.9296 71.5382 25.6953 72.304C26.4611 73.0697 27.4997 73.5 28.5827 73.5H69.416C70.499 73.5 71.5376 73.0697 72.3034 72.304C73.0691 71.5382 73.4993 70.4996 73.4993 69.4166V28.5833C73.4993 27.5003 73.0691 26.4617 72.3034 25.6959C71.5376 24.9302 70.499 24.5 69.416 24.5ZM57.166 32.6666C59.2264 32.666 61.2108 33.4441 62.7216 34.8451C64.2323 36.246 65.1577 38.1662 65.3123 40.2208L65.3327 40.8333V57.1666C65.3333 59.227 64.5552 61.2114 63.1542 62.7222C61.7533 64.2329 59.8331 65.1583 57.7785 65.3129L57.166 65.3333H40.8327C38.7723 65.3339 36.7879 64.5558 35.2771 63.1548C33.7664 61.7539 32.841 59.8337 32.6864 57.7791L32.666 57.1666V40.8333C32.6654 38.7729 33.4435 36.7885 34.8445 35.2777C36.2454 33.767 38.1656 32.8416 40.2202 32.687L40.8327 32.6666H57.166ZM57.166 40.8333H40.8327V57.1666H57.166V40.8333Z"/>
</mask>
<path fill-rule="evenodd" clip-rule="evenodd" d="M61.2493 8.16663C62.3323 8.16663 63.3709 8.59683 64.1367 9.36261C64.9025 10.1284 65.3327 11.167 65.3327 12.25V16.3333H69.416C72.6649 16.3333 75.7807 17.6239 78.0781 19.9212C80.3754 22.2186 81.666 25.3344 81.666 28.5833V32.6666H85.7493C86.8323 32.6666 87.8709 33.0968 88.6367 33.8626C89.4025 34.6284 89.8327 35.667 89.8327 36.75C89.8327 37.8329 89.4025 38.8715 88.6367 39.6373C87.8709 40.4031 86.8323 40.8333 85.7493 40.8333H81.666V57.1666H85.7493C86.8323 57.1666 87.8709 57.5968 88.6367 58.3626C89.4025 59.1284 89.8327 60.167 89.8327 61.25C89.8327 62.3329 89.4025 63.3715 88.6367 64.1373C87.8709 64.9031 86.8323 65.3333 85.7493 65.3333H81.666V69.4166C81.666 72.6655 80.3754 75.7814 78.0781 78.0787C75.7807 80.376 72.6649 81.6666 69.416 81.6666H65.3327V85.75C65.3327 86.8329 64.9025 87.8715 64.1367 88.6373C63.3709 89.4031 62.3323 89.8333 61.2493 89.8333C60.1664 89.8333 59.1278 89.4031 58.362 88.6373C57.5962 87.8715 57.166 86.8329 57.166 85.75V81.6666H40.8327V85.75C40.8327 86.8329 40.4025 87.8715 39.6367 88.6373C38.8709 89.4031 37.8323 89.8333 36.7493 89.8333C35.6664 89.8333 34.6278 89.4031 33.862 88.6373C33.0962 87.8715 32.666 86.8329 32.666 85.75V81.6666H28.5827C25.3338 81.6666 22.2179 80.376 19.9206 78.0787C17.6233 75.7814 16.3327 72.6655 16.3327 69.4166V65.3333H12.2493C11.1664 65.3333 10.1278 64.9031 9.362 64.1373C8.59622 63.3715 8.16602 62.3329 8.16602 61.25C8.16602 60.167 8.59622 59.1284 9.362 58.3626C10.1278 57.5968 11.1664 57.1666 12.2493 57.1666H16.3327V40.8333H12.2493C11.1664 40.8333 10.1278 40.4031 9.362 39.6373C8.59622 38.8715 8.16602 37.8329 8.16602 36.75C8.16602 35.667 8.59622 34.6284 9.362 33.8626C10.1278 33.0968 11.1664 32.6666 12.2493 32.6666H16.3327V28.5833C16.3327 25.3344 17.6233 22.2186 19.9206 19.9212C22.2179 17.6239 25.3338 16.3333 28.5827 16.3333H32.666V12.25C32.666 11.167 33.0962 10.1284 33.862 9.36261C34.6278 8.59683 35.6664 8.16663 36.7493 8.16663C37.8323 8.16663 38.8709 8.59683 39.6367 9.36261C40.4025 10.1284 40.8327 11.167 40.8327 12.25V16.3333H57.166V12.25C57.166 11.167 57.5962 10.1284 58.362 9.36261C59.1278 8.59683 60.1664 8.16663 61.2493 8.16663ZM69.416 24.5H28.5827C27.4997 24.5 26.4611 24.9302 25.6953 25.6959C24.9296 26.4617 24.4993 27.5003 24.4993 28.5833V69.4166C24.4993 70.4996 24.9296 71.5382 25.6953 72.304C26.4611 73.0697 27.4997 73.5 28.5827 73.5H69.416C70.499 73.5 71.5376 73.0697 72.3034 72.304C73.0691 71.5382 73.4993 70.4996 73.4993 69.4166V28.5833C73.4993 27.5003 73.0691 26.4617 72.3034 25.6959C71.5376 24.9302 70.499 24.5 69.416 24.5ZM57.166 32.6666C59.2264 32.666 61.2108 33.4441 62.7216 34.8451C64.2323 36.246 65.1577 38.1662 65.3123 40.2208L65.3327 40.8333V57.1666C65.3333 59.227 64.5552 61.2114 63.1542 62.7222C61.7533 64.2329 59.8331 65.1583 57.7785 65.3129L57.166 65.3333H40.8327C38.7723 65.3339 36.7879 64.5558 35.2771 63.1548C33.7664 61.7539 32.841 59.8337 32.6864 57.7791L32.666 57.1666V40.8333C32.6654 38.7729 33.4435 36.7885 34.8445 35.2777C36.2454 33.767 38.1656 32.8416 40.2202 32.687L40.8327 32.6666H57.166ZM57.166 40.8333H40.8327V57.1666H57.166V40.8333Z" fill="white" stroke="#E82583" stroke-width="3" mask="url(#path-1-inside-1_57_544)"/>
</g>
<defs>
<clipPath id="clip0_57_544">
<rect width="98" height="98" fill="white"/>
</clipPath>
</defs>
</svg>
