<svg width="71" height="85" viewBox="0 0 71 85" fill="none" xmlns="http://www.w3.org/2000/svg">
<path d="M63.2214 13.9454L63.2215 13.9455C67.6802 21.5862 70.1562 31.7417 70.1562 42.5C70.1562 53.2583 67.6802 63.4138 63.2215 71.0545L63.2214 71.0546C58.4481 79.2368 52.0112 83.5938 45.1562 83.5938H25.8438C18.9888 83.5938 12.5519 79.2368 7.77857 71.0546L7.77852 71.0545C3.31978 63.4138 0.84375 53.2583 0.84375 42.5C0.84375 31.7417 3.31978 21.5862 7.77852 13.9455L7.77857 13.9454C12.5519 5.76316 18.9888 1.40625 25.8438 1.40625H45.1562C52.0112 1.40625 58.4481 5.76316 63.2214 13.9454ZM64.3843 40.0312H65.174L65.1333 39.2425C64.7548 31.9166 63.1103 25.1355 60.6043 19.6568L60.4039 19.2188H59.9223H47.6146H46.531L46.9126 20.2329C49.2123 26.3437 50.5114 32.7853 50.7598 39.3098L50.7873 40.0312H51.5093H64.3843ZM56.096 14.2812H57.6309L56.6876 13.0703C53.4759 8.94741 49.4989 6.34375 45.1562 6.34375H39.7085H37.9511L39.167 7.61266C40.9878 9.51278 42.5726 11.6258 43.8869 13.9058L44.1033 14.2812H44.5366H56.096ZM39.1791 77.3873L37.9631 78.6562H39.7206H45.1562C49.4989 78.6562 53.4756 76.0526 56.6989 71.9308L57.6466 70.7188H56.108H44.5487H44.1154L43.8989 71.0942C42.5846 73.3742 40.9999 75.4872 39.1791 77.3873ZM59.9223 65.7812H60.4039L60.6043 65.3432C63.1102 59.8645 64.7547 53.0835 65.1373 45.7579L65.1785 44.9688H64.3883H51.5133H50.7913L50.7638 45.6902C50.5154 52.2147 49.2164 58.6563 46.9167 64.7671L46.535 65.7812H47.6186H59.9223ZM25.8438 6.34375C20.2015 6.34375 15.1757 10.6985 11.6063 17.2407C8.01683 23.8197 5.78125 32.7984 5.78125 42.5C5.78125 52.2016 8.01683 61.1803 11.6063 67.7593C15.1757 74.3015 20.2015 78.6562 25.8438 78.6562C31.486 78.6562 36.5118 74.3015 40.0812 67.7593C43.6707 61.1803 45.9062 52.2016 45.9062 42.5C45.9062 32.7984 43.6707 23.8197 40.0812 17.2407C36.5118 10.6985 31.486 6.34375 25.8438 6.34375Z" fill="white" stroke="#E82583" stroke-width="1.5"/>
</svg>
