<svg width="168" height="49" viewBox="0 0 168 49" fill="none" xmlns="http://www.w3.org/2000/svg">
<path d="M161.759 48.5944H6.22149C2.80123 48.5944 0 45.8595 0 42.5201V6.07428C0 2.73493 2.80123 -2.2786e-05 6.22149 -2.2786e-05H161.759C165.179 -2.2786e-05 167.98 2.73493 167.98 6.07428V42.5201C167.98 45.8595 165.179 48.5944 161.759 48.5944Z" fill="black"/>
<path d="M161.759 0.973383C164.639 0.973383 166.983 3.26188 166.983 6.07428V42.5201C166.983 45.3325 164.639 47.621 161.759 47.621H6.22149C3.34094 47.621 0.996994 45.3325 0.996994 42.5201V6.07428C0.996994 3.26188 3.34094 0.973383 6.22149 0.973383H161.759ZM161.759 -2.2786e-05H6.22149C2.80123 -2.2786e-05 0 2.73493 0 6.07428V42.5201C0 45.8595 2.80123 48.5944 6.22149 48.5944H161.759C165.179 48.5944 167.98 45.8595 167.98 42.5201V6.07428C167.98 2.73493 165.179 -2.2786e-05 161.759 -2.2786e-05Z" fill="#A6A6A6"/>
<path d="M59.0008 12.4447C59.0008 13.4591 58.6897 14.2716 58.0769 14.8775C57.3723 15.5958 56.4546 15.9572 55.3301 15.9572C54.2553 15.9572 53.3377 15.5897 52.5849 14.8653C51.8305 14.1303 51.4541 13.2283 51.4541 12.1486C51.4541 11.0689 51.8305 10.1668 52.5849 9.43793C53.3377 8.7075 54.2553 8.34 55.3301 8.34C55.8651 8.34 56.3753 8.44782 56.8621 8.64827C57.3474 8.85024 57.7425 9.12359 58.0287 9.46071L57.3785 10.1015C56.8792 9.52601 56.1995 9.24204 55.3301 9.24204C54.5462 9.24204 53.8665 9.5093 53.2894 10.0484C52.7186 10.589 52.4324 11.2891 52.4324 12.1486C52.4324 13.0081 52.7186 13.7142 53.2894 14.2549C53.8665 14.7879 54.5462 15.0612 55.3301 15.0612C56.1622 15.0612 56.8621 14.7879 57.4143 14.2488C57.7783 13.8919 57.9851 13.3999 58.0396 12.7712H55.3301V11.8935H58.9448C58.9883 12.0833 59.0008 12.267 59.0008 12.4447V12.4447Z" fill="white" stroke="white" stroke-width="0.131782" stroke-miterlimit="10"/>
<path d="M64.7355 9.40149H61.3401V11.7097H64.4011V12.5875H61.3401V14.8957H64.7355V15.7901H60.3789V8.50705H64.7355V9.40149Z" fill="white" stroke="white" stroke-width="0.131782" stroke-miterlimit="10"/>
<path d="M68.7831 15.7901H67.8219V9.40148H65.7393V8.50704H70.8673V9.40148H68.7831V15.7901V15.7901Z" fill="white" stroke="white" stroke-width="0.131782" stroke-miterlimit="10"/>
<path d="M74.5781 15.7901V8.50704H75.5378V15.7901H74.5781Z" fill="white" stroke="white" stroke-width="0.131782" stroke-miterlimit="10"/>
<path d="M79.7929 15.7901H78.8394V9.40149H76.749V8.50705H81.8833V9.40149H79.7929V15.7901Z" fill="white" stroke="white" stroke-width="0.131782" stroke-miterlimit="10"/>
<path d="M91.5921 14.8532C90.8565 15.5897 89.945 15.9572 88.8578 15.9572C87.7644 15.9572 86.8529 15.5897 86.1172 14.8532C85.3831 14.1182 85.0176 13.2161 85.0176 12.1486C85.0176 11.081 85.3831 10.179 86.1172 9.44401C86.8529 8.7075 87.7644 8.34 88.8578 8.34C89.9388 8.34 90.8502 8.7075 91.5859 9.45008C92.3263 10.1911 92.6918 11.0871 92.6918 12.1486C92.6918 13.2161 92.3263 14.1182 91.5921 14.8532ZM86.828 14.2427C87.3817 14.7879 88.0552 15.0612 88.8578 15.0612C89.6541 15.0612 90.3338 14.7879 90.8813 14.2427C91.4335 13.6975 91.7135 12.9975 91.7135 12.1486C91.7135 11.2997 91.4335 10.5996 90.8813 10.0545C90.3338 9.5093 89.6541 9.23596 88.8578 9.23596C88.0552 9.23596 87.3817 9.5093 86.828 10.0545C86.2759 10.5996 85.9959 11.2997 85.9959 12.1486C85.9959 12.9975 86.2759 13.6975 86.828 14.2427V14.2427Z" fill="white" stroke="white" stroke-width="0.131782" stroke-miterlimit="10"/>
<path d="M94.0391 15.7901V8.50704H95.2056L98.8327 14.1713H98.8747L98.8327 12.7712V8.50704H99.7924V15.7901H98.7907L94.9925 9.84642H94.9505L94.9925 11.2526V15.7901H94.0391V15.7901Z" fill="white" stroke="white" stroke-width="0.131782" stroke-miterlimit="10"/>
<path d="M84.7807 26.4263C81.8581 26.4263 79.4706 28.5978 79.4706 31.594C79.4706 34.5659 81.8581 36.7602 84.7807 36.7602C87.7094 36.7602 90.0969 34.5659 90.0969 31.594C90.0969 28.5978 87.7094 26.4263 84.7807 26.4263ZM84.7807 34.7253C83.1771 34.7253 81.7975 33.433 81.7975 31.594C81.7975 29.7307 83.1771 28.4612 84.7807 28.4612C86.3843 28.4612 87.7701 29.7307 87.7701 31.594C87.7701 33.433 86.3843 34.7253 84.7807 34.7253V34.7253ZM73.1947 26.4263C70.2659 26.4263 67.8847 28.5978 67.8847 31.594C67.8847 34.5659 70.2659 36.7602 73.1947 36.7602C76.1219 36.7602 78.5047 34.5659 78.5047 31.594C78.5047 28.5978 76.1219 26.4263 73.1947 26.4263ZM73.1947 34.7253C71.5895 34.7253 70.2053 33.433 70.2053 31.594C70.2053 29.7307 71.5895 28.4612 73.1947 28.4612C74.7983 28.4612 76.1779 29.7307 76.1779 31.594C76.1779 33.433 74.7983 34.7253 73.1947 34.7253ZM59.4079 28.0102V30.206H64.7786C64.6215 31.433 64.2015 32.3351 63.5576 32.9638C62.7737 33.723 61.5527 34.5659 59.4079 34.5659C56.1027 34.5659 53.5146 31.9615 53.5146 28.7345C53.5146 25.5075 56.1027 22.9032 59.4079 22.9032C61.195 22.9032 62.4953 23.585 63.455 24.4688L65.0399 22.9214C63.6976 21.6701 61.912 20.7088 59.4079 20.7088C54.8755 20.7088 51.0664 24.3094 51.0664 28.7345C51.0664 33.1597 54.8755 36.7602 59.4079 36.7602C61.8576 36.7602 63.6976 35.9766 65.1441 34.5066C66.6264 33.0594 67.0883 31.0245 67.0883 29.3814C67.0883 28.8712 67.0448 28.402 66.967 28.0102H59.4079ZM115.784 29.7125C115.347 28.5568 113.998 26.4263 111.252 26.4263C108.53 26.4263 106.263 28.5204 106.263 31.594C106.263 34.4884 108.506 36.7602 111.513 36.7602C113.944 36.7602 115.347 35.313 115.924 34.4702L114.12 33.2963C113.518 34.1558 112.698 34.7253 111.513 34.7253C110.335 34.7253 109.491 34.1984 108.95 33.1597L116.028 30.3002L115.784 29.7125V29.7125ZM108.567 31.433C108.506 29.4407 110.152 28.4202 111.331 28.4202C112.255 28.4202 113.039 28.8712 113.3 29.5166L108.567 31.433V31.433ZM102.814 36.4458H105.14V21.2601H102.814V36.4458ZM99.003 27.5774H98.9252C98.4026 26.973 97.4056 26.4263 96.1427 26.4263C93.4923 26.4263 91.069 28.6981 91.069 31.6107C91.069 34.5066 93.4923 36.7602 96.1427 36.7602C97.4056 36.7602 98.4026 36.209 98.9252 35.5863H99.003V36.3274C99.003 38.3031 97.922 39.3646 96.1784 39.3646C94.7568 39.3646 93.8749 38.3623 93.511 37.5195L91.4874 38.3441C92.0707 39.7138 93.6152 41.3994 96.1784 41.3994C98.9066 41.3994 101.209 39.8323 101.209 36.0191V26.7406H99.003V27.5774V27.5774ZM96.3418 34.7253C94.7382 34.7253 93.3959 33.4148 93.3959 31.6107C93.3959 29.7899 94.7382 28.4612 96.3418 28.4612C97.922 28.4612 99.1679 29.7899 99.1679 31.6107C99.1679 33.4148 97.922 34.7253 96.3418 34.7253V34.7253ZM126.678 21.2601H121.113V36.4458H123.433V30.692H126.678C129.255 30.692 131.782 28.8712 131.782 25.9753C131.782 23.0809 129.249 21.2601 126.678 21.2601V21.2601ZM126.738 28.5796H123.433V23.3724H126.738C128.471 23.3724 129.46 24.7771 129.46 25.9753C129.46 27.1506 128.471 28.5796 126.738 28.5796ZM141.084 26.3974C139.407 26.3974 137.663 27.1203 136.946 28.7224L139.006 29.5652C139.449 28.7224 140.264 28.449 141.126 28.449C142.329 28.449 143.55 29.1552 143.569 30.4019V30.5614C143.149 30.3245 142.25 29.9737 141.144 29.9737C138.926 29.9737 136.666 31.1658 136.666 33.3905C136.666 35.4254 138.483 36.7359 140.525 36.7359C142.087 36.7359 142.948 36.048 143.49 35.2477H143.569V36.4216H145.81V30.5963C145.81 27.9039 143.751 26.3974 141.084 26.3974ZM140.804 34.7192C140.045 34.7192 138.987 34.3517 138.987 33.433C138.987 32.2576 140.306 31.8066 141.448 31.8066C142.469 31.8066 142.948 32.0268 143.569 32.3168C143.387 33.723 142.147 34.7192 140.804 34.7192V34.7192ZM153.976 26.73L151.309 33.313H151.229L148.472 26.73H145.969L150.113 35.9295L147.748 41.0487H150.173L156.558 26.73H153.976V26.73ZM133.058 36.4458H135.385V21.2601H133.058V36.4458Z" fill="white"/>
<path d="M12.9843 9.1585C12.6188 9.53207 12.4072 10.1137 12.4072 10.8669V37.7336C12.4072 38.4868 12.6188 39.0684 12.9843 39.442L13.0745 39.524L28.4944 24.4749V24.1195L13.0745 9.07042L12.9843 9.1585Z" fill="url(#paint0_linear_73_293)"/>
<path d="M33.6284 29.4938L28.4941 24.4749V24.1195L33.6347 19.1006L33.7497 19.1659L39.8375 22.5478C41.5748 23.5075 41.5748 25.0868 39.8375 26.0527L33.7497 29.4285L33.6284 29.4938V29.4938Z" fill="url(#paint1_linear_73_293)"/>
<path d="M33.7502 29.4285L28.4946 24.2972L12.9844 39.442C13.5614 40.0342 14.5024 40.1056 15.5725 39.5133L33.7502 29.4285" fill="url(#paint2_linear_73_293)"/>
<path d="M33.7502 19.1659L15.5725 9.08108C14.5024 8.49491 13.5614 8.56628 12.9844 9.15852L28.4946 24.2972L33.7502 19.1659Z" fill="url(#paint3_linear_73_293)"/>
<defs>
<linearGradient id="paint0_linear_73_293" x1="27.1253" y1="38.0133" x2="6.7429" y2="17.137" gradientUnits="userSpaceOnUse">
<stop stop-color="#00A0FF"/>
<stop offset="0.0066" stop-color="#00A1FF"/>
<stop offset="0.2601" stop-color="#00BEFF"/>
<stop offset="0.5122" stop-color="#00D2FF"/>
<stop offset="0.7604" stop-color="#00DFFF"/>
<stop offset="1" stop-color="#00E3FF"/>
</linearGradient>
<linearGradient id="paint1_linear_73_293" x1="42.0998" y1="24.2955" x2="11.9916" y2="24.2955" gradientUnits="userSpaceOnUse">
<stop stop-color="#FFE000"/>
<stop offset="0.4087" stop-color="#FFBD00"/>
<stop offset="0.7754" stop-color="#FFA500"/>
<stop offset="1" stop-color="#FF9C00"/>
</linearGradient>
<linearGradient id="paint2_linear_73_293" x1="30.8923" y1="21.5078" x2="3.25207" y2="-6.80224" gradientUnits="userSpaceOnUse">
<stop stop-color="#FF3A44"/>
<stop offset="1" stop-color="#C31162"/>
</linearGradient>
<linearGradient id="paint3_linear_73_293" x1="9.08014" y1="48.3804" x2="21.4228" y2="35.7388" gradientUnits="userSpaceOnUse">
<stop stop-color="#32A071"/>
<stop offset="0.0685" stop-color="#2DA771"/>
<stop offset="0.4762" stop-color="#15CF74"/>
<stop offset="0.8009" stop-color="#06E775"/>
<stop offset="1" stop-color="#00F076"/>
</linearGradient>
</defs>
</svg>
