<svg width="74" height="74" viewBox="0 0 74 74" fill="none" xmlns="http://www.w3.org/2000/svg">
<circle cx="37" cy="37" r="37" fill="url(#paint0_linear_4_639)"/>
<path d="M55 29H45V19C45 18.4696 44.7893 17.9609 44.4142 17.5858C44.0391 17.2107 43.5304 17 43 17H31C30.4696 17 29.9609 17.2107 29.5858 17.5858C29.2107 17.9609 29 18.4696 29 19V29H19C18.4696 29 17.9609 29.2107 17.5858 29.5858C17.2107 29.9609 17 30.4696 17 31V57H35V51C35 50.4696 35.2107 49.9609 35.5858 49.5858C35.9609 49.2107 36.4696 49 37 49C37.5304 49 38.0391 49.2107 38.4142 49.5858C38.7893 49.9609 39 50.4696 39 51V57H57V31C57 30.4696 56.7893 29.9609 56.4142 29.5858C56.0391 29.2107 55.5304 29 55 29ZM25 53H21V49H25V53ZM25 45H21V41H25V45ZM25 37H21V33H25V37ZM39 43H35V39H39V43ZM39 35H35V31H39V35ZM39 27H35V23H39V27ZM53 53H49V49H53V53ZM53 45H49V41H53V45ZM53 37H49V33H53V37Z" fill="white"/>
<defs>
<linearGradient id="paint0_linear_4_639" x1="37" y1="0" x2="37" y2="74" gradientUnits="userSpaceOnUse">
<stop stop-color="#E82583"/>
<stop offset="1" stop-color="#FF99CA"/>
</linearGradient>
</defs>
</svg>
