<svg width="246" height="139" viewBox="0 0 246 139" fill="none" xmlns="http://www.w3.org/2000/svg">
<path d="M88.6758 61.0943H92.8179V77.9101H88.6758V61.0943ZM94.461 71.5609C94.461 67.402 97.0015 64.9205 100.923 64.9205C104.844 64.9205 107.384 67.402 107.384 71.5609C107.384 75.7198 104.899 78.2151 100.923 78.2151C96.9463 78.2151 94.461 75.7891 94.461 71.5609ZM103.229 71.5609C103.229 69.2735 102.331 67.9288 100.923 67.9288C99.5144 67.9288 98.6307 69.3151 98.6307 71.5609C98.6307 73.8067 99.5006 75.1652 100.923 75.1652C102.345 75.1652 103.229 73.8898 103.229 71.5747V71.5609ZM108.945 78.728H112.921C113.11 79.1501 113.43 79.4996 113.833 79.7244C114.236 79.9492 114.701 80.0374 115.158 79.9757C116.732 79.9757 117.56 79.1162 117.56 77.8685V75.5395H117.477C117.147 76.2533 116.612 76.8514 115.94 77.2567C115.268 77.6619 114.491 77.8557 113.708 77.8131C110.684 77.8131 108.682 75.4979 108.682 71.5193C108.682 67.5406 110.588 65.0314 113.763 65.0314C114.571 64.9997 115.368 65.2163 116.049 65.6524C116.73 66.0885 117.262 66.7231 117.574 67.4713V65.1562H121.716V77.7715C121.716 80.8074 119.051 82.6928 115.116 82.6928C111.458 82.6928 109.179 81.0431 108.945 78.7419V78.728ZM117.574 71.547C117.574 69.523 116.649 68.2476 115.185 68.2476C113.722 68.2476 112.824 69.5092 112.824 71.547C112.824 73.5849 113.708 74.7355 115.185 74.7355C116.663 74.7355 117.574 73.6126 117.574 71.5609V71.547ZM123.276 71.547C123.276 67.3881 125.817 64.9067 129.738 64.9067C133.659 64.9067 136.214 67.3881 136.214 71.547C136.214 75.7059 133.728 78.2012 129.738 78.2012C125.748 78.2012 123.276 75.7891 123.276 71.5609V71.547ZM132.044 71.547C132.044 69.2596 131.147 67.9149 129.738 67.9149C128.33 67.9149 127.515 69.3151 127.515 71.5747C127.515 73.8344 128.385 75.1791 129.793 75.1791C131.202 75.1791 132.044 73.8898 132.044 71.5747V71.547ZM137.788 62.1341C137.777 61.7142 137.89 61.3005 138.114 60.9455C138.338 60.5904 138.661 60.3101 139.044 60.1399C139.426 59.9697 139.85 59.9174 140.262 59.9895C140.675 60.0617 141.056 60.2551 141.359 60.5452C141.661 60.8353 141.871 61.2091 141.962 61.6192C142.053 62.0292 142.02 62.4571 141.868 62.8485C141.716 63.2399 141.452 63.5773 141.109 63.8178C140.766 64.0584 140.36 64.1913 139.942 64.1996C139.664 64.2188 139.386 64.1801 139.125 64.0861C138.863 63.9921 138.623 63.8448 138.421 63.6535C138.219 63.4621 138.058 63.2308 137.949 62.9741C137.84 62.7174 137.785 62.4408 137.788 62.1618V62.1341ZM137.788 65.1839H141.93V77.9101H137.788V65.1839ZM156.966 71.547C156.966 75.7059 155.13 78.0765 151.982 78.0765C151.174 78.1285 150.371 77.9304 149.679 77.5089C148.988 77.0874 148.442 76.4628 148.116 75.7198H148.033V81.9858H143.891V65.1562H148.033V67.4297H148.116C148.427 66.6743 148.962 66.0336 149.649 65.5945C150.336 65.1555 151.141 64.9395 151.954 64.976C155.13 65.0314 157.021 67.4159 157.021 71.5747L156.966 71.547ZM152.824 71.547C152.824 69.523 151.899 68.2338 150.449 68.2338C148.999 68.2338 148.074 69.5369 148.06 71.547C148.046 73.5571 148.999 74.8464 150.449 74.8464C151.899 74.8464 152.824 73.5849 152.824 71.5747V71.547ZM164.077 64.8928C167.515 64.8928 169.599 66.5286 169.696 69.1487H165.927C165.927 68.2476 165.181 67.6792 164.035 67.6792C162.889 67.6792 162.378 68.1229 162.378 68.7744C162.378 69.426 162.834 69.6339 163.759 69.828L166.41 70.3687C168.937 70.9093 170.014 71.9352 170.014 73.8621C170.014 76.4961 167.625 78.1874 164.104 78.1874C160.583 78.1874 158.278 76.4961 158.098 73.9037H162.088C162.213 74.8464 162.958 75.4009 164.173 75.4009C165.388 75.4009 165.941 74.9989 165.941 74.3335C165.941 73.668 165.554 73.5294 164.56 73.3215L162.171 72.8085C159.7 72.2956 158.402 70.9786 158.402 69.0378C158.429 66.5425 160.652 64.9205 164.077 64.9205V64.8928ZM183.835 77.8824H179.844V75.5118H179.761C179.542 76.3077 179.058 77.0043 178.39 77.486C177.722 77.9676 176.91 78.2054 176.089 78.1596C175.459 78.1955 174.83 78.0954 174.242 77.866C173.655 77.6366 173.123 77.2833 172.684 76.8299C172.244 76.3765 171.906 75.8336 171.693 75.2379C171.48 74.6422 171.397 74.0076 171.45 73.3769V65.1562H175.592V72.4204C175.592 73.9314 176.365 74.7355 177.649 74.7355C177.95 74.7361 178.248 74.6721 178.522 74.5477C178.797 74.4234 179.042 74.2415 179.24 74.0144C179.439 73.7873 179.587 73.5202 179.675 73.2309C179.762 72.9416 179.787 72.6369 179.748 72.3372V65.1562H183.89L183.835 77.8824ZM185.837 65.1562H189.841V67.6099H189.924C190.143 66.8246 190.616 66.1346 191.268 65.6479C191.92 65.1612 192.715 64.9054 193.527 64.9205C194.354 64.8541 195.175 65.1024 195.827 65.6162C196.48 66.1299 196.915 66.8714 197.048 67.6931H197.131C197.381 66.8626 197.9 66.1394 198.605 65.6375C199.31 65.1355 200.161 64.8833 201.025 64.9205C201.588 64.9015 202.149 65.0017 202.671 65.2146C203.193 65.4275 203.665 65.7484 204.056 66.1563C204.446 66.5642 204.747 67.0501 204.938 67.5823C205.13 68.1146 205.208 68.6814 205.167 69.2458V77.9101H201.025V70.3548C201.025 68.9685 200.403 68.3308 199.243 68.3308C198.985 68.3286 198.729 68.3821 198.492 68.4878C198.256 68.5934 198.045 68.7487 197.874 68.9431C197.702 69.1376 197.574 69.3667 197.499 69.615C197.423 69.8633 197.401 70.125 197.435 70.3825V77.9101H193.5V70.2993C193.5 69.0239 192.878 68.3308 191.746 68.3308C191.485 68.3309 191.226 68.3866 190.987 68.4944C190.749 68.6022 190.536 68.7595 190.362 68.956C190.189 69.1525 190.059 69.3837 189.981 69.6344C189.903 69.8851 189.879 70.1495 189.91 70.4102V77.9101H185.768L185.837 65.1562Z" fill="white"/>
<path d="M77.0915 61.8568C76.3889 60.2437 75.4589 58.7404 74.3301 57.393C72.6615 55.3417 70.5791 53.6686 68.22 52.4836C65.8609 51.2986 63.2786 50.6287 60.6431 50.5179C58.0076 50.4071 55.3785 50.858 52.9291 51.8409C50.4796 52.8237 48.2652 54.3163 46.4317 56.2204C44.5981 58.1244 43.1869 60.3967 42.2911 62.8878C41.3952 65.3789 41.0349 68.0322 41.2339 70.6731C41.4329 73.3141 42.1867 75.8828 43.4457 78.2102C44.7047 80.5375 46.4403 82.5708 48.5384 84.1762C49.8846 85.2268 51.3721 86.0809 52.9566 86.7131C55.1783 87.6272 57.5559 88.098 59.9569 88.0994C64.9128 88.0884 69.6622 86.1049 73.164 82.5837C76.6658 79.0626 78.6343 74.2911 78.6379 69.3151C78.6416 66.7484 78.115 64.2088 77.0915 61.8568ZM59.9431 54.3293C62.0991 54.329 64.2291 54.8022 66.1839 55.7156C65.7072 55.9223 65.2061 56.0668 64.6927 56.1453C63.0035 56.3908 61.4387 57.1782 60.2319 58.39C59.025 59.6017 58.2408 61.1728 57.9963 62.8688C57.8889 63.82 57.4581 64.7049 56.7764 65.3741C56.0948 66.0434 55.204 66.4561 54.2545 66.5425C52.5653 66.788 51.0005 67.5754 49.7937 68.7872C48.5868 69.9989 47.8026 71.57 47.5581 73.266C47.4753 74.1704 47.0909 75.0203 46.4673 75.6782C45.3912 73.3953 44.9078 70.8762 45.0621 68.3554C45.2164 65.8345 46.0032 63.3938 47.3495 61.2604C48.6958 59.1269 50.5577 57.3701 52.7621 56.1534C54.9664 54.9367 57.4414 54.2997 59.9569 54.3015L59.9431 54.3293ZM48.5246 79.0192C48.6902 78.8667 48.8559 78.728 49.0216 78.5617C50.25 77.3659 51.0384 75.7875 51.2584 74.0839C51.3475 73.1264 51.7734 72.2319 52.4596 71.5609C53.1199 70.8708 54.0087 70.4467 54.9587 70.3687C56.6479 70.1232 58.2127 69.3358 59.4195 68.124C60.6264 66.9123 61.4106 65.3412 61.6551 63.6452C61.7149 62.6436 62.143 61.7 62.8564 60.9973C63.533 60.3206 64.4303 59.912 65.3831 59.8467C66.9349 59.6323 68.3822 58.9397 69.5252 57.8643C70.8267 58.9485 71.9295 60.2528 72.7837 61.7182C72.7312 61.7894 72.671 61.8545 72.6042 61.9123C71.9451 62.6085 71.0575 63.0418 70.1051 63.1322C68.4142 63.3735 66.847 64.1594 65.6394 65.372C64.4317 66.5845 63.6489 68.158 63.4087 69.8558C63.3113 70.8101 62.8884 71.7014 62.2115 72.3785C61.5346 73.0556 60.6454 73.4769 59.6945 73.571C58.0004 73.8146 56.4298 74.6005 55.2159 75.8117C54.0021 77.023 53.2097 78.5951 52.9566 80.2945C52.8823 80.9721 52.6506 81.6226 52.2801 82.1938C50.8635 81.3493 49.5947 80.2768 48.5246 79.0192ZM59.9431 84.3702C58.542 84.3718 57.1477 84.1758 55.8009 83.788C56.2616 82.9257 56.5611 81.986 56.6846 81.0154C56.7813 80.0632 57.2023 79.1736 57.8764 78.4968C58.5505 77.8199 59.4365 77.3973 60.3849 77.3001C62.0766 77.0574 63.6445 76.2712 64.8541 75.0592C66.0637 73.8473 66.8499 72.2746 67.0952 70.5766C67.1919 69.6244 67.6129 68.7348 68.287 68.058C68.9611 67.3812 69.8471 66.9585 70.7955 66.8614C72.0685 66.6951 73.2819 66.2192 74.3301 65.4751C74.9122 67.6902 74.9811 70.0098 74.5317 72.2559C74.0822 74.502 73.1263 76.6149 71.7373 78.4324C70.3483 80.25 68.5631 81.7239 66.5186 82.7412C64.4742 83.7585 62.2248 84.292 59.9431 84.3009V84.3702Z" fill="white"/>
</svg>
