<svg width="246" height="139" viewBox="0 0 246 139" fill="none" xmlns="http://www.w3.org/2000/svg">
<path fill-rule="evenodd" clip-rule="evenodd" d="M14.4233 41.6543V90.8026H233.377V41.6543H14.4233ZM230.615 88.0301H118.776V44.4269H230.615V88.0301ZM26.0611 74.4628V58.1225H31.6779V70.1112H41.5861V74.4628H26.0611ZM52.8047 74.7122C60.4967 74.7122 63.7304 71.381 63.7304 66.1782C63.7304 60.8909 60.0881 57.7481 52.8047 57.7481C45.6332 57.7481 41.8583 61.1612 41.8583 66.1782C41.8583 71.8398 45.8182 74.7122 52.8047 74.7122ZM52.784 61.9944C57.1167 61.9944 58.0915 63.8839 58.0915 66.2406C58.0915 68.7387 56.9124 70.5284 52.8019 70.5284C48.7177 70.5284 47.5372 68.8427 47.5372 66.2406C47.5372 63.6801 48.8241 61.9944 52.784 61.9944ZM81.1053 74.4628L80.9603 72.8796C79.0814 74.226 76.7943 74.874 74.4916 74.7123C71.0301 74.7123 68.1471 73.6712 66.5303 71.5696C65.4639 70.0352 64.9253 68.1934 64.9963 66.3238C64.9357 64.4935 65.4928 62.6962 66.5772 61.2236C68.2134 59.1844 71.1792 57.8314 75.5948 57.8314C80.6745 57.8314 83.6596 59.3923 84.9437 62.0152C85.2194 62.6329 85.3812 63.2956 85.4214 63.9713H80.0476C79.9123 63.5607 79.6603 63.1988 79.3227 62.9302C78.2523 62.2177 76.9741 61.888 75.6942 61.9944C74.9435 61.903 74.182 61.9727 73.4601 62.1988C72.7382 62.4248 72.0723 62.8022 71.5064 63.3059C70.8639 64.1889 70.5622 65.276 70.6573 66.3654C70.5828 67.4048 70.8601 68.4389 71.4443 69.3002C72.0154 69.8343 72.6941 70.2389 73.4344 70.4867C74.1748 70.7345 74.9596 70.8196 75.7356 70.7364C77.277 70.8623 78.8072 70.3849 80.0062 69.4042C80.2638 69.0809 80.4413 68.7008 80.524 68.2951H74.7415V64.7836H85.5623V74.4628H81.1053ZM98.0846 74.7122C105.775 74.7122 109.01 71.381 109.01 66.1782C109.01 60.8909 105.362 57.7481 98.0846 57.7481C90.9131 57.7481 87.1382 61.1612 87.1382 66.1782C87.1382 71.8398 91.0981 74.7122 98.0846 74.7122ZM98.0639 61.9944C102.397 61.9944 103.371 63.8839 103.371 66.2406C103.371 68.7387 102.191 70.5284 98.0819 70.5284C93.999 70.5284 92.8172 68.8427 92.8172 66.2406C92.8172 63.6801 94.104 61.9944 98.0639 61.9944Z" fill="white"/>
<path d="M128.237 74.3998V58.0596H132.241V74.3998H128.237Z" fill="white"/>
<path d="M152.803 67.5729C151.788 68.9051 150.041 69.5137 147.579 69.5289C147.06 69.5289 140.177 69.5081 140.177 69.5081V74.4004H136.259V58.0601H147.581C148.488 57.9638 149.406 58.0604 150.274 58.3436C151.141 58.6269 151.94 59.0905 152.618 59.7043C153.512 60.8746 153.947 62.3337 153.841 63.8049C153.932 65.143 153.566 66.4722 152.803 67.5729ZM149.59 62.2453C149.176 61.6215 148.282 61.2749 146.77 61.2749H140.157V66.249H146.728C148.344 66.249 149.196 65.9162 149.59 65.2702C149.824 64.8151 149.924 64.3027 149.88 63.7924C149.915 63.2604 149.815 62.7282 149.59 62.2453Z" fill="white"/>
<path d="M165.388 74.6494C158.006 74.6494 155.748 71.8768 155.748 69.1333H159.935C159.935 70.4863 161.78 71.5067 165.574 71.5067C169.346 71.5067 170.342 70.8399 170.342 69.7572C170.342 68.5497 169.596 68.1754 166.092 67.7803C165.402 67.7179 163.522 67.4892 162.817 67.3852C157.846 66.8224 155.933 65.3446 155.933 62.7009C155.933 59.9117 158.733 57.8101 164.807 57.8101C171.4 57.8101 173.929 60.4121 173.929 63.1182H169.787C169.787 61.7444 168.232 60.9528 164.562 60.9528C160.789 60.9528 159.981 61.4726 159.981 62.493C159.981 63.5549 160.809 63.8876 164.813 64.3659C165.726 64.492 167.757 64.7207 168.316 64.7817C172.547 65.2184 174.454 66.7586 174.454 69.4854C174.447 72.7335 171.544 74.6494 165.388 74.6494Z" fill="white"/>
<path d="M186.246 74.6286C180.836 74.6286 177.311 72.484 177.311 67.9744V58.0596H181.27V68.0298C181.27 70.0912 182.95 71.4637 186.411 71.4637C189.542 71.4637 191.408 70.1744 191.408 68.0298V58.0596H195.327V68.3445C195.327 72.4438 192.05 74.6286 186.246 74.6286Z" fill="white"/>
<path d="M216.783 74.3998V63.4925L211.703 74.3998H207.848L202.914 63.4925V74.3998H199.186V58.0596H204.236L209.834 70.5071L215.556 58.0596H220.526V74.3998H216.783Z" fill="white"/>
</svg>
