<svg width="247" height="139" viewBox="0 0 247 139" fill="none" xmlns="http://www.w3.org/2000/svg">
<path d="M64.3931 57.379H67.1545V76.6762H75.4388V79.4488H64.3931V57.379ZM84.0406 57.379C85.6791 57.379 87.2808 57.8668 88.6432 58.7808C90.0055 59.6947 91.0673 60.9938 91.6943 62.5137C92.3214 64.0335 92.4854 65.706 92.1658 67.3194C91.8461 68.9329 91.0571 70.415 89.8985 71.5783C88.7399 72.7415 87.2638 73.5337 85.6568 73.8547C84.0498 74.1756 82.3841 74.0109 80.8704 73.3813C79.3566 72.7518 78.0628 71.6857 77.1525 70.3178C76.2422 68.95 75.7564 67.3418 75.7564 65.6967C75.7564 64.6044 75.9706 63.5228 76.387 62.5137C76.8033 61.5045 77.4135 60.5875 78.1828 59.8152C78.952 59.0428 79.8653 58.4301 80.8704 58.0121C81.8755 57.5941 82.9527 57.379 84.0406 57.379ZM84.0406 71.2419C85.133 71.2419 86.2008 70.9167 87.109 70.3074C88.0172 69.6981 88.7251 68.832 89.1431 67.8188C89.5611 66.8055 89.6705 65.6906 89.4574 64.6149C89.2443 63.5393 88.7183 62.5512 87.9459 61.7757C87.1735 61.0002 86.1894 60.4721 85.1181 60.2581C84.0468 60.0441 82.9363 60.1539 81.9271 60.5736C80.918 60.9933 80.0554 61.7041 79.4486 62.616C78.8417 63.5279 78.5178 64.6 78.5178 65.6967C78.5251 67.1626 79.1102 68.5659 80.1451 69.5999C81.1801 70.6338 82.5807 71.2142 84.0406 71.2142V71.2419ZM78.5178 76.7039H89.5635V79.4765H78.5178V76.7039ZM113.864 79.4765H111.103V77.4941C109.322 78.7457 107.201 79.4183 105.028 79.4211C103.174 79.4335 101.347 78.9774 99.7151 78.0947C98.0831 77.2121 96.6987 75.9312 95.6893 74.3702C94.6799 72.8093 94.0779 71.0183 93.939 69.1624C93.8 67.3065 94.1284 65.4453 94.894 63.7503C95.6596 62.0554 96.8378 60.5811 98.3199 59.4633C99.8021 58.3456 101.541 57.6204 103.375 57.3544C105.21 57.0884 107.082 57.2903 108.818 57.9415C110.555 58.5926 112.1 59.6721 113.312 61.0804L111.282 62.8964C110.36 61.8617 109.195 61.0751 107.893 60.6083C106.591 60.1415 105.194 60.0092 103.828 60.2237C102.462 60.4381 101.171 60.9924 100.073 61.8361C98.9749 62.6797 98.1047 63.7858 97.5415 65.0536C96.9784 66.3214 96.7402 67.7105 96.8487 69.0944C96.9572 70.4783 97.4089 71.8129 98.1627 72.9766C98.9165 74.1403 99.9484 75.0961 101.164 75.7568C102.38 76.4175 103.742 76.7622 105.124 76.7594C106.272 76.7617 107.406 76.5152 108.45 76.0367C109.493 75.5582 110.422 74.8589 111.172 73.9868H103.716V71.2142H113.892L113.864 79.4765ZM124.026 57.4344C125.665 57.4344 127.266 57.9222 128.629 58.8362C129.991 59.7502 131.053 61.0492 131.68 62.5691C132.307 64.089 132.471 65.7614 132.151 67.3749C131.832 68.9884 131.043 70.4705 129.884 71.6337C128.725 72.797 127.249 73.5892 125.642 73.9101C124.035 74.2311 122.37 74.0664 120.856 73.4368C119.342 72.8072 118.048 71.7411 117.138 70.3733C116.228 69.0054 115.742 67.3973 115.742 65.7522C115.735 64.6529 115.944 63.563 116.359 62.5456C116.774 61.5283 117.385 60.6035 118.158 59.8249C118.931 59.0463 119.85 58.4292 120.862 58.0094C121.874 57.5895 122.959 57.3753 124.054 57.379L124.026 57.4344ZM124.026 71.2974C125.118 71.2974 126.186 70.9721 127.094 70.3628C128.003 69.7535 128.711 68.8875 129.129 67.8742C129.547 66.861 129.656 65.746 129.443 64.6704C129.23 63.5947 128.704 62.6067 127.931 61.8311C127.159 61.0556 126.175 60.5275 125.104 60.3135C124.032 60.0996 122.922 60.2094 121.913 60.6291C120.903 61.0488 120.041 61.7595 119.434 62.6714C118.827 63.5833 118.503 64.6554 118.503 65.7522C118.525 67.2132 119.12 68.6065 120.16 69.6293C121.199 70.6521 122.598 71.2217 124.054 71.2142L124.026 71.2974ZM118.503 76.7594H129.549V79.532H118.503V76.7594ZM135.251 57.379H138.013V79.4211H135.251V57.379ZM141.837 57.379H144.599C144.741 57.3638 144.885 57.3638 145.027 57.379C146.183 57.253 147.353 57.373 148.461 57.7311C149.568 58.0892 150.588 58.6775 151.453 59.4576C152.319 60.2377 153.012 61.1921 153.486 62.2587C153.96 63.3253 154.205 64.4802 154.205 65.6482C154.205 66.8162 153.96 67.9711 153.486 69.0377C153.012 70.1043 152.319 71.0587 151.453 71.8388C150.588 72.6189 149.568 73.2072 148.461 73.5653C147.353 73.9234 146.183 74.0434 145.027 73.9175H144.599V79.4626H141.837V57.379ZM144.599 60.1515V71.1171H145.027C145.807 71.2214 146.6 71.1572 147.353 70.9287C148.106 70.7002 148.802 70.3127 149.394 69.7923C149.986 69.2718 150.461 68.6304 150.786 67.9109C151.111 67.1914 151.279 66.4105 151.279 65.6205C151.279 64.8305 151.111 64.0496 150.786 63.3301C150.461 62.6106 149.986 61.9691 149.394 61.4487C148.802 60.9282 148.106 60.5408 147.353 60.3123C146.6 60.0838 145.807 60.0195 145.027 60.1238C144.876 60.1395 144.728 60.1721 144.585 60.2209L144.599 60.1515ZM164.495 58.9732L162.451 60.5952C162.099 60.2253 161.649 59.9642 161.153 59.8424C160.658 59.7207 160.138 59.7434 159.656 59.9079C159.173 60.0724 158.747 60.3719 158.427 60.7711C158.108 61.1704 157.909 61.6528 157.854 62.1617V62.3835C157.854 63.6034 158.696 64.4213 160.339 64.5322C166.663 64.9204 169.562 67.9009 169.562 71.838V72.0876C169.399 73.6458 168.793 75.1242 167.817 76.3468C166.841 77.5695 165.536 78.4849 164.057 78.9844C162.578 79.4838 160.987 79.5461 159.474 79.164C157.96 78.7818 156.588 77.9712 155.52 76.8287L157.633 75.1929C158.124 75.722 158.725 76.1374 159.393 76.4102C160.06 76.6831 160.779 76.807 161.499 76.7732C162.829 76.8436 164.134 76.3954 165.143 75.5223C166.151 74.6492 166.785 73.4186 166.911 72.0876V71.8935C166.911 68.1921 163.294 67.5128 160.159 67.2078C157.26 66.9305 155.175 65.1145 155.175 62.4944V62.3835C155.277 61.0194 155.897 59.7468 156.907 58.8284C157.917 57.91 159.239 57.416 160.601 57.4483C161.323 57.4269 162.041 57.5577 162.71 57.8323C163.378 58.1069 163.981 58.5192 164.481 59.0425L164.495 58.9732ZM180.373 76.6069C183.811 76.6069 186.531 72.8777 186.531 68.2891V57.1987H189.293V68.2891C189.293 74.3888 185.316 79.3102 180.428 79.3102C175.541 79.3102 171.564 74.3888 171.564 68.2891V57.1987H174.326V68.2891C174.215 72.9471 176.935 76.6762 180.359 76.6762L180.373 76.6069ZM210.487 79.3795H207.725V65.6551L201.36 73.9729L194.995 65.6551V79.4211H192.233V57.379L201.346 69.4259L210.459 57.379L210.487 79.3795Z" fill="white"/>
<path d="M51.1384 54.0659C51.1384 52.0658 50.3471 50.1476 48.9385 48.7333C47.5298 47.319 45.6194 46.5244 43.6273 46.5244C41.6352 46.5244 39.7248 47.319 38.3162 48.7333C36.9076 50.1476 36.1162 52.0658 36.1162 54.0659V76.8705L42.3018 81.3205V92.1614H44.9528V81.3205L51.1384 76.8705V54.0659ZM48.4874 66.8198L44.9528 70.3687V67.0416L48.4874 63.4927V66.8198ZM38.8224 63.4927L42.357 67.0416V70.3687L38.8224 66.8198V63.4927ZM48.4874 59.722L43.6273 64.6017L38.7672 59.6111V56.2839L43.6273 61.1637L48.4874 56.2839V59.722ZM43.6273 49.1861C44.6962 49.1909 45.7341 49.5473 46.5819 50.2008C47.4298 50.8543 48.0409 51.7688 48.3217 52.8043L43.6273 57.5039L38.9329 52.8043C39.2034 51.7585 39.8101 50.8316 40.6589 50.1673C41.5078 49.5031 42.5512 49.1387 43.6273 49.1307V49.1861ZM38.7672 75.5258V70.5351L42.3018 74.084V78.0488L38.7672 75.5258ZM44.9528 78.0627V74.084L48.4874 70.5351V75.5119L44.9528 78.0627Z" fill="white"/>
</svg>
