<svg width="247" height="139" viewBox="0 0 247 139" fill="none" xmlns="http://www.w3.org/2000/svg">
<path d="M76.5791 58.5713H80.732V78.6033H76.5791V58.5713Z" fill="white"/>
<path d="M83.0573 71.7413C83.0573 70.3001 83.4846 68.8913 84.285 67.6936C85.0854 66.4958 86.2229 65.563 87.5533 65.0134C88.8837 64.4638 90.3471 64.3221 91.7579 64.6063C93.1688 64.8905 94.4637 65.5878 95.4784 66.6098C96.4931 67.6319 97.182 68.9326 97.4577 70.3471C97.7334 71.7616 97.5835 73.2263 97.0271 74.5554C96.4706 75.8846 95.5327 77.0184 94.3321 77.8131C93.1315 78.6078 91.7224 79.0276 90.2833 79.0194C89.3287 79.0268 88.3823 78.8434 87.4996 78.4798C86.6168 78.1161 85.8154 77.5796 85.1424 76.9018C84.4693 76.2239 83.9382 75.4182 83.5802 74.5321C83.2221 73.646 83.0444 72.6972 83.0573 71.7413ZM93.4671 71.7413C93.4508 71.12 93.2519 70.5173 92.8953 70.0085C92.5387 69.4998 92.0403 69.1077 91.4623 68.8811C90.8844 68.6546 90.2525 68.6038 89.6459 68.735C89.0392 68.8661 88.4846 69.1735 88.0515 69.6187C87.6184 70.0639 87.3259 70.6271 87.2107 71.2378C87.0955 71.8486 87.1627 72.4798 87.4038 73.0525C87.6449 73.6252 88.0493 74.114 88.5664 74.4578C89.0835 74.8016 89.6903 74.985 90.3109 74.9853C90.7335 74.9935 91.1532 74.9144 91.5439 74.7528C91.9345 74.5912 92.2877 74.3507 92.5813 74.0463C92.8749 73.7418 93.1027 73.38 93.2503 72.9834C93.398 72.5868 93.4623 72.164 93.4394 71.7413H93.4671Z" fill="white"/>
<path d="M113.941 64.8793V77.9244C113.941 82.5269 110.342 84.4816 106.701 84.4816C105.417 84.5871 104.129 84.3316 102.982 83.7438C101.835 83.156 100.875 82.2592 100.209 81.1544L103.711 79.1304C103.995 79.7035 104.447 80.1763 105.005 80.4859C105.564 80.7955 106.204 80.9271 106.84 80.8633C107.245 80.9133 107.656 80.873 108.043 80.7454C108.431 80.6178 108.785 80.406 109.081 80.1252C109.378 79.8444 109.608 79.5015 109.757 79.1211C109.905 78.7406 109.968 78.3319 109.941 77.9244V76.6628C109.457 77.2496 108.844 77.7155 108.15 78.0235C107.455 78.3316 106.699 78.4732 105.94 78.4373C104.104 78.4373 102.344 77.707 101.046 76.4071C99.7478 75.1072 99.0186 73.3441 99.0186 71.5058C99.0186 69.6675 99.7478 67.9044 101.046 66.6045C102.344 65.3046 104.104 64.5743 105.94 64.5743C106.699 64.5384 107.455 64.68 108.15 64.9881C108.844 65.2961 109.457 65.762 109.941 66.3488V64.9625L113.941 64.8793ZM109.941 71.4642C109.968 70.801 109.797 70.1446 109.449 69.5795C109.101 69.0145 108.593 68.5665 107.989 68.2933C107.384 68.0201 106.713 67.9341 106.059 68.0464C105.406 68.1587 104.801 68.4641 104.322 68.9234C103.844 69.3827 103.513 69.9749 103.374 70.6238C103.234 71.2727 103.291 71.9486 103.538 72.5647C103.785 73.1808 104.21 73.7088 104.759 74.0809C105.308 74.453 105.955 74.6521 106.618 74.6527C107.051 74.6839 107.485 74.6239 107.893 74.4766C108.301 74.3293 108.674 74.0979 108.987 73.7974C109.3 73.4969 109.546 73.134 109.711 72.7321C109.875 72.3302 109.953 71.8983 109.941 71.4642Z" fill="white"/>
<path d="M116.281 71.7414C116.281 70.3014 116.707 68.8937 117.507 67.6965C118.306 66.4993 119.442 65.5665 120.77 65.0161C122.099 64.4656 123.561 64.3223 124.971 64.6042C126.381 64.8862 127.676 65.5807 128.692 66.6C129.708 67.6192 130.399 68.9173 130.678 70.3301C130.957 71.7428 130.811 73.2066 130.259 74.5362C129.706 75.8659 128.773 77.0016 127.576 77.7996C126.379 78.5977 124.972 79.0222 123.534 79.0195C122.578 79.0288 121.63 78.8468 120.744 78.4841C119.859 78.1215 119.055 77.5855 118.38 76.9076C117.704 76.2298 117.17 75.4236 116.81 74.5365C116.45 73.6494 116.27 72.6991 116.281 71.7414ZM126.691 71.7414C126.674 71.1195 126.475 70.5162 126.118 70.0072C125.761 69.4982 125.261 69.1061 124.683 68.88C124.104 68.6539 123.471 68.6039 122.864 68.7362C122.257 68.8685 121.703 69.1773 121.27 69.6238C120.838 70.0704 120.546 70.6348 120.433 71.2465C120.319 71.8581 120.388 72.4897 120.631 73.0622C120.875 73.6347 121.281 74.1225 121.8 74.4646C122.319 74.8067 122.927 74.9879 123.548 74.9854C123.971 74.9936 124.391 74.9145 124.781 74.7529C125.172 74.5913 125.525 74.3508 125.819 74.0464C126.112 73.7419 126.34 73.3801 126.488 72.9835C126.635 72.5869 126.7 72.1641 126.677 71.7414H126.691Z" fill="white"/>
<path d="M132.712 61.2054C132.712 60.7174 132.856 60.2403 133.127 59.8345C133.398 59.4287 133.783 59.1124 134.233 58.9256C134.683 58.7389 135.179 58.69 135.657 58.7852C136.135 58.8804 136.574 59.1154 136.918 59.4605C137.263 59.8056 137.498 60.2453 137.593 60.724C137.688 61.2027 137.639 61.6988 137.452 62.1497C137.266 62.6006 136.95 62.986 136.545 63.2571C136.14 63.5283 135.663 63.673 135.176 63.673C134.525 63.6658 133.902 63.4035 133.442 62.9423C132.981 62.4811 132.719 61.8576 132.712 61.2054ZM133.113 64.8791H137.266V78.6034H133.113V64.8791Z" fill="white"/>
<path d="M155.041 71.7413C155.088 72.654 154.953 73.567 154.646 74.4276C154.339 75.2882 153.865 76.0795 153.251 76.7559C152.638 77.4323 151.897 77.9806 151.07 78.369C150.244 78.7575 149.35 78.9785 148.438 79.0193C147.664 79.0709 146.889 78.9468 146.17 78.6563C145.451 78.3659 144.807 77.9166 144.285 77.3419V84.1209H140.132V64.8791H144.285V66.1684C144.807 65.5954 145.452 65.1481 146.171 64.86C146.89 64.572 147.665 64.4505 148.438 64.5048C149.346 64.5457 150.237 64.7654 151.06 65.1512C151.884 65.5371 152.623 66.0815 153.236 66.7535C153.849 67.4255 154.324 68.2118 154.634 69.0676C154.944 69.9234 155.082 70.8319 155.041 71.7413ZM150.888 71.7413C150.872 71.0974 150.666 70.4727 150.297 69.9454C149.927 69.4182 149.411 69.0118 148.812 68.7773C148.213 68.5429 147.558 68.4906 146.929 68.6272C146.301 68.7638 145.727 69.0832 145.279 69.5452C144.831 70.0073 144.529 70.5915 144.411 71.2247C144.293 71.8579 144.364 72.5118 144.616 73.1045C144.868 73.6972 145.288 74.2024 145.825 74.5567C146.362 74.911 146.992 75.0986 147.635 75.0961C148.076 75.1148 148.515 75.0401 148.925 74.8768C149.334 74.7135 149.705 74.4653 150.012 74.1485C150.319 73.8318 150.556 73.4535 150.707 73.0387C150.858 72.6238 150.92 72.1817 150.888 71.7413Z" fill="white"/>
<path d="M167.679 74.4864C167.679 77.6471 164.911 78.9918 161.976 78.9918C160.779 79.0997 159.577 78.8456 158.526 78.2624C157.475 77.6792 156.623 76.7936 156.079 75.7202L159.651 73.6962C159.792 74.1908 160.099 74.6218 160.52 74.9171C160.94 75.2123 161.45 75.3539 161.962 75.3181C162.945 75.3181 163.444 75.0132 163.444 74.4586C163.444 72.9476 156.702 73.7516 156.702 68.9966C156.702 66.0022 159.221 64.505 162.073 64.505C163.157 64.4564 164.234 64.7027 165.189 65.2177C166.145 65.7328 166.943 66.4973 167.499 67.4301L163.928 69.3155C163.77 68.9578 163.512 68.6536 163.186 68.4396C162.859 68.2256 162.477 68.1109 162.087 68.1094C161.367 68.1094 160.938 68.3867 160.938 68.8719C160.938 70.4522 167.679 69.4125 167.679 74.4864Z" fill="white"/>
<path d="M182.727 64.8789V78.6032H178.574V77.314C178.102 77.8846 177.503 78.3363 176.825 78.6325C176.147 78.9286 175.409 79.0611 174.67 79.0191C171.901 79.0191 169.534 77.0367 169.534 73.3353V64.8789H173.687V72.7115C173.654 73.0389 173.693 73.3696 173.801 73.6806C173.908 73.9916 174.082 74.2755 174.309 74.5128C174.537 74.75 174.813 74.935 175.119 75.0548C175.426 75.1746 175.754 75.2265 176.082 75.2068C177.577 75.2068 178.629 74.3196 178.629 72.4342V64.8789H182.727Z" fill="white"/>
<path d="M206.259 70.1748V78.6034H202.107V70.5352C202.107 69.1489 201.456 68.2894 200.141 68.2894C198.826 68.2894 197.995 69.246 197.995 70.8679V78.6034H193.842V70.5352C193.842 69.1489 193.192 68.2894 191.877 68.2894C190.562 68.2894 189.731 69.246 189.731 70.8679V78.6034H185.578V64.8791H189.731V66.1407C190.161 65.5833 190.723 65.1419 191.366 64.8564C192.008 64.5708 192.712 64.45 193.413 64.5048C194.116 64.4681 194.815 64.615 195.444 64.9309C196.072 65.2469 196.608 65.7211 196.999 66.307C197.455 65.6949 198.058 65.2085 198.753 64.8934C199.448 64.5782 200.211 64.4445 200.971 64.5048C204.211 64.5048 206.259 66.7506 206.259 70.1748Z" fill="white"/>
<path d="M51.8415 54.967V49.0752H33.292V89.555H51.8415V83.6633C48.0416 83.6633 44.3974 82.1516 41.7105 79.4608C39.0236 76.77 37.5141 73.1205 37.5141 69.3151C37.5141 65.5097 39.0236 61.8602 41.7105 59.1694C44.3974 56.4786 48.0416 54.967 51.8415 54.967Z" fill="white"/>
<path d="M51.8413 54.9668V83.6631C55.6412 83.6631 59.2854 82.1514 61.9723 79.4606C64.6593 76.7698 66.1687 73.1203 66.1687 69.315C66.1687 65.5096 64.6593 61.8601 61.9723 59.1693C59.2854 56.4785 55.6412 54.9668 51.8413 54.9668Z" fill="white"/>
<path d="M209.748 64.796C211.43 64.796 212.793 63.4305 212.793 61.7461C212.793 60.0618 211.43 58.6963 209.748 58.6963C208.066 58.6963 206.703 60.0618 206.703 61.7461C206.703 63.4305 208.066 64.796 209.748 64.796Z" fill="white"/>
</svg>
