<svg width="143" height="142" viewBox="0 0 143 142" fill="none" xmlns="http://www.w3.org/2000/svg">
<circle cx="71.489" cy="70.9187" r="70.9187" fill="url(#paint0_linear_57_488)"/>
<path d="M105.99 55.5849H86.8225V36.4177C86.8225 35.401 86.4186 34.426 85.6997 33.7071C84.9808 32.9882 84.0057 32.5843 82.989 32.5843H59.9884C58.9717 32.5843 57.9966 32.9882 57.2777 33.7071C56.5588 34.426 56.1549 35.401 56.1549 36.4177V55.5849H36.9877C35.971 55.5849 34.996 55.9888 34.2771 56.7077C33.5582 57.4266 33.1543 58.4017 33.1543 59.4184V109.253H67.6553V97.7528C67.6553 96.7361 68.0591 95.761 68.778 95.0421C69.497 94.3232 70.472 93.9193 71.4887 93.9193C72.5054 93.9193 73.4804 94.3232 74.1994 95.0421C74.9183 95.761 75.3221 96.7361 75.3221 97.7528V109.253H109.823V59.4184C109.823 58.4017 109.419 57.4266 108.7 56.7077C107.981 55.9888 107.006 55.5849 105.99 55.5849ZM48.4881 101.586H40.8212V93.9193H48.4881V101.586ZM48.4881 86.2525H40.8212V78.5856H48.4881V86.2525ZM48.4881 70.9187H40.8212V63.2518H48.4881V70.9187ZM75.3221 82.419H67.6553V74.7521H75.3221V82.419ZM75.3221 67.0853H67.6553V59.4184H75.3221V67.0853ZM75.3221 51.7515H67.6553V44.0846H75.3221V51.7515ZM102.156 101.586H94.4893V93.9193H102.156V101.586ZM102.156 86.2525H94.4893V78.5856H102.156V86.2525ZM102.156 70.9187H94.4893V63.2518H102.156V70.9187Z" fill="white"/>
<defs>
<linearGradient id="paint0_linear_57_488" x1="71.489" y1="0" x2="71.489" y2="141.837" gradientUnits="userSpaceOnUse">
<stop stop-color="#E82583"/>
<stop offset="1" stop-color="#FF99CA"/>
</linearGradient>
</defs>
</svg>
