<svg width="92" height="92" viewBox="0 0 92 92" fill="none" xmlns="http://www.w3.org/2000/svg">
<path d="M72.2351 30.1875C71.7087 37.4954 66.2875 43.125 60.3758 43.125C54.464 43.125 49.0339 37.4972 48.5164 30.1875C47.9773 22.5849 53.2547 17.25 60.3758 17.25C67.4968 17.25 72.7742 22.7233 72.2351 30.1875Z" stroke="white" stroke-width="5" stroke-linecap="round" stroke-linejoin="round"/>
<path d="M60.3743 54.625C48.6641 54.625 37.403 60.4415 34.5819 71.769C34.2082 73.2676 35.148 74.75 36.6879 74.75H84.0625C85.6024 74.75 86.5368 73.2676 86.1684 71.769C83.3473 60.26 72.0863 54.625 60.3743 54.625Z" stroke="white" stroke-width="5" stroke-miterlimit="10"/>
<path d="M35.938 33.4111C35.5175 39.2473 31.1367 43.8438 26.4146 43.8438C21.6924 43.8438 17.3044 39.2491 16.8911 33.4111C16.4617 27.3395 20.7257 23 26.4146 23C32.1035 23 36.3674 27.4509 35.938 33.4111Z" stroke="white" stroke-width="5" stroke-linecap="round" stroke-linejoin="round"/>
<path d="M37.0154 54.9844C33.7721 53.4984 30.1999 52.927 26.4139 52.927C17.0701 52.927 8.06777 57.5719 5.81269 66.6192C5.51621 67.8159 6.2673 69.0001 7.49637 69.0001H27.6717" stroke="white" stroke-width="5" stroke-miterlimit="10" stroke-linecap="round"/>
</svg>
