<svg width="74" height="74" viewBox="0 0 74 74" fill="none" xmlns="http://www.w3.org/2000/svg">
<circle cx="37" cy="37" r="37" fill="url(#paint0_linear_4_653)"/>
<path d="M50.552 21.776H42.104L42.06 21.468C41.9427 20.1773 41.4 19.092 40.432 18.212C39.464 17.332 38.32 16.892 37 16.892C35.68 16.892 34.536 17.332 33.568 18.212C32.6 19.092 32.0573 20.1773 31.94 21.468L31.896 21.776H23.448C22.5387 21.776 21.7613 22.0986 21.116 22.744C20.4707 23.3893 20.148 24.1666 20.148 25.076V52.18C20.148 53.0893 20.4707 53.874 21.116 54.534C21.7613 55.194 22.5387 55.524 23.448 55.524H50.552C51.4613 55.524 52.2387 55.194 52.884 54.534C53.5293 53.874 53.852 53.0893 53.852 52.18V25.12C53.852 24.1813 53.5293 23.3893 52.884 22.744C52.2387 22.0986 51.4613 21.776 50.552 21.776ZM37 19.972C37.528 19.972 37.9827 20.1626 38.364 20.544C38.7453 20.9253 38.936 21.3873 38.936 21.93C38.936 22.4726 38.7453 22.9346 38.364 23.316C37.9827 23.6973 37.528 23.888 37 23.888C36.472 23.888 36.0173 23.6973 35.636 23.316C35.2547 22.9346 35.064 22.4726 35.064 21.93C35.064 21.3873 35.2547 20.9253 35.636 20.544C36.0173 20.1626 36.472 19.972 37 19.972ZM38.364 46.856H28.068C27.8333 46.856 27.628 46.7753 27.452 46.614C27.276 46.4526 27.188 46.2546 27.188 46.02V43.908C27.188 43.6733 27.276 43.4753 27.452 43.314C27.628 43.1526 27.8333 43.072 28.068 43.072H38.364C38.5987 43.072 38.804 43.1526 38.98 43.314C39.156 43.4753 39.244 43.6733 39.244 43.908V46.02C39.244 46.2546 39.156 46.4526 38.98 46.614C38.804 46.7753 38.5987 46.856 38.364 46.856ZM45.932 40.256H28.068C27.8333 40.256 27.628 40.1753 27.452 40.014C27.276 39.8526 27.188 39.6546 27.188 39.42V37.308C27.188 37.0733 27.276 36.868 27.452 36.692C27.628 36.516 27.8333 36.428 28.068 36.428H45.932C46.1667 36.428 46.372 36.516 46.548 36.692C46.724 36.868 46.812 37.0733 46.812 37.308V39.42C46.812 39.6546 46.724 39.8526 46.548 40.014C46.372 40.1753 46.1667 40.256 45.932 40.256ZM45.932 33.656H28.068C27.8333 33.656 27.628 33.5753 27.452 33.414C27.276 33.2526 27.188 33.04 27.188 32.776V30.708C27.188 30.4733 27.276 30.268 27.452 30.092C27.628 29.916 27.8333 29.828 28.068 29.828H45.932C46.1667 29.828 46.372 29.916 46.548 30.092C46.724 30.268 46.812 30.4733 46.812 30.708V32.776C46.812 33.04 46.724 33.2526 46.548 33.414C46.372 33.5753 46.1667 33.656 45.932 33.656Z" fill="url(#paint1_linear_4_653)"/>
<defs>
<linearGradient id="paint0_linear_4_653" x1="37" y1="0" x2="37" y2="74" gradientUnits="userSpaceOnUse">
<stop stop-color="#FFFBF3"/>
<stop offset="1" stop-color="white"/>
</linearGradient>
<linearGradient id="paint1_linear_4_653" x1="37" y1="16.892" x2="37" y2="55.524" gradientUnits="userSpaceOnUse">
<stop stop-color="#E82583"/>
<stop offset="1" stop-color="#E82583" stop-opacity="0.63"/>
</linearGradient>
</defs>
</svg>
