<svg width="118" height="118" viewBox="0 0 118 118" fill="none" xmlns="http://www.w3.org/2000/svg">
<path d="M63.1673 83.5833C63.1673 85.8845 61.3018 87.75 59.0007 87.75C56.6995 87.75 54.834 85.8845 54.834 83.5833C54.834 81.2821 56.6995 79.4166 59.0007 79.4166C61.3018 79.4166 63.1673 81.2821 63.1673 83.5833Z" fill="white" stroke="#E82583" stroke-width="1.5"/>
<path d="M38.5833 59C38.5833 61.3012 36.7179 63.1666 34.4167 63.1666C32.1155 63.1666 30.25 61.3012 30.25 59C30.25 56.6988 32.1155 54.8333 34.4167 54.8333C36.7179 54.8333 38.5833 56.6988 38.5833 59Z" fill="white" stroke="#E82583" stroke-width="1.5"/>
<path d="M87.7493 59C87.7493 61.3012 85.8839 63.1666 83.5827 63.1666C81.2815 63.1666 79.416 61.3012 79.416 59C79.416 56.6988 81.2815 54.8333 83.5827 54.8333C85.8839 54.8333 87.7493 56.6988 87.7493 59Z" fill="white" stroke="#E82583" stroke-width="1.5"/>
<path d="M63.1668 24.1101L64.0244 24.2344C80.6507 26.6455 93.5131 40.5597 94.1663 57.6931L94.1663 57.6944C94.8698 77.0415 78.9537 93.8641 59.6034 94.1665C54.934 94.2493 50.2949 93.4007 45.9572 91.6702C41.6195 89.9398 37.6701 87.3622 34.3399 84.0881C31.0096 80.8139 28.3653 76.909 26.5614 72.6013C24.7574 68.2936 23.8301 63.6696 23.8335 58.9995M63.1668 24.1101L24.5835 59M63.1668 24.1101V24.9767V29.5C63.1668 31.79 61.2901 33.6667 59.0001 33.6667C56.7102 33.6667 54.8335 31.79 54.8335 29.5V19.6667C54.8335 17.3767 56.7102 15.5 59.0001 15.5C83.5059 15.5 103.273 35.7519 102.451 60.4008L102.451 60.4019C101.727 83.1128 82.725 101.969 60.0151 102.5L60.0149 102.5C35.5107 103.08 15.5001 83.3612 15.5001 59L15.5001 58.9982C15.4857 53.0456 16.7066 47.1548 19.0855 41.6982C21.4645 36.2416 24.9497 31.338 29.3209 27.2974L29.3211 27.2972C30.9967 25.7473 33.5858 25.7964 35.1648 27.3753L35.1653 27.3758L61.9115 54.0728L63.1668 24.1101ZM23.8335 58.9995L24.5835 59M23.8335 58.9995C23.8335 58.9996 23.8335 58.9998 23.8335 59H24.5835M23.8335 58.9995C23.8336 50.561 26.7979 42.8217 31.7733 36.791L32.2991 36.1537L32.8827 36.7386L56.0396 59.9447L55.5093 60.475M24.5835 59C24.5835 51.0115 27.2967 43.6668 31.8782 37.8555L31.8209 37.7981L32.3518 37.2683L32.9303 37.7456C32.9149 37.7643 32.8995 37.783 32.8841 37.8018L55.5093 60.475M55.5093 60.475L56.0402 59.9452M55.5093 60.475C55.9645 60.9302 56.5049 61.2913 57.0996 61.5376C57.6944 61.784 58.3318 61.9108 58.9755 61.9108C59.6193 61.9108 60.2567 61.784 60.8515 61.5376C61.4462 61.2913 61.9866 60.9302 62.4418 60.475C62.897 60.0198 63.2581 59.4794 63.5044 58.8847C63.7508 58.2899 63.8776 57.6525 63.8776 57.0088C63.8776 56.365 63.7508 55.7276 63.5044 55.1328C63.2581 54.5381 62.897 53.9977 62.4418 53.5425L61.9119 54.0733M56.0402 59.9452L61.9119 54.0733M56.0402 59.9452C56.4256 60.3305 56.8831 60.6362 57.3866 60.8447C57.8904 61.0534 58.4303 61.1608 58.9755 61.1608C59.5208 61.1608 60.0607 61.0534 60.5645 60.8447C61.0682 60.6361 61.5259 60.3302 61.9115 59.9447C62.297 59.5591 62.6029 59.1014 62.8115 58.5977C63.0202 58.0939 63.1276 57.554 63.1276 57.0088C63.1276 56.4635 63.0202 55.9236 62.8115 55.4198C62.6029 54.9163 62.2973 54.4588 61.9119 54.0733M56.0402 59.9452L61.9119 54.0733" fill="white" stroke="#E82583" stroke-width="1.5"/>
</svg>
