<svg width="84" height="76" viewBox="0 0 84 76" fill="none" xmlns="http://www.w3.org/2000/svg">
<path d="M62.4683 63.8623L66.45 67.8651V75.25H17.55V67.8651L21.5317 63.8623L22.8039 62.5833H21H8.4C4.19794 62.5833 0.75 59.1229 0.75 54.8889V8.44444C0.75 4.21048 4.19794 0.75 8.4 0.75H41.25V7.69444H8.4H7.65V8.44444V54.8889V55.6389H8.4H75.6H76.35V54.8889V42.9722H83.25V54.8889C83.25 59.1229 79.8021 62.5833 75.6 62.5833H63H61.1961L62.4683 63.8623ZM54.6 49.6032L35.4039 30.3056H50.4H51.15V29.5556V0.75H58.05V29.5556V30.3056H58.8H73.7961L54.6 49.6032Z" fill="white" stroke="#E82583" stroke-width="1.5"/>
</svg>
