<svg width="74" height="74" viewBox="0 0 74 74" fill="none" xmlns="http://www.w3.org/2000/svg">
<circle cx="37" cy="37" r="37" fill="url(#paint0_linear_4_660)"/>
<path d="M56.9996 23.22V45.94C56.9996 48.84 54.9196 50.06 52.3796 48.66L48.5196 46.5C48.1996 46.32 47.9996 45.98 47.9996 45.62V30.98C47.9996 25.9 43.8596 21.76 38.7796 21.76H30.6397C29.8997 21.76 29.3797 20.98 29.7197 20.34C30.7597 18.36 32.8397 17 35.2196 17H50.7796C54.1996 17 56.9996 19.8 56.9996 23.22Z" fill="white"/>
<path d="M38.78 24.7578H23.22C19.8 24.7578 17 27.5578 17 30.9778V53.6978C17 56.5978 19.08 57.8178 21.62 56.4178L29.48 52.0378C30.32 51.5778 31.68 51.5778 32.52 52.0378L40.38 56.4178C42.92 57.8178 45 56.5978 45 53.6978V30.9778C45 27.5578 42.2 24.7578 38.78 24.7578ZM35 38.4978H32.5V40.9978C32.5 41.8178 31.82 42.4978 31 42.4978C30.18 42.4978 29.5 41.8178 29.5 40.9978V38.4978H27C26.18 38.4978 25.5 37.8178 25.5 36.9978C25.5 36.1778 26.18 35.4978 27 35.4978H29.5V32.9978C29.5 32.1778 30.18 31.4978 31 31.4978C31.82 31.4978 32.5 32.1778 32.5 32.9978V35.4978H35C35.82 35.4978 36.5 36.1778 36.5 36.9978C36.5 37.8178 35.82 38.4978 35 38.4978Z" fill="white"/>
<defs>
<linearGradient id="paint0_linear_4_660" x1="37" y1="0" x2="37" y2="74" gradientUnits="userSpaceOnUse">
<stop stop-color="#E82583"/>
<stop offset="1" stop-color="#FF99CA"/>
</linearGradient>
</defs>
</svg>
