<svg width="392" height="297" viewBox="0 0 392 297" fill="none" xmlns="http://www.w3.org/2000/svg">
<g opacity="0.1">
<mask id="path-1-inside-1_63_990" fill="white">
<path d="M384.719 13.0127C381.16 13.0127 378.274 10.1273 378.274 6.568C378.274 3.00869 381.16 0.123307 384.719 0.123308C388.278 0.123308 391.164 3.0087 391.164 6.568C391.164 10.1273 388.278 13.0127 384.719 13.0127Z"/>
<path d="M337.458 13.0127C333.898 13.0127 331.013 10.1273 331.013 6.568C331.013 3.00869 333.898 0.123305 337.458 0.123305C341.017 0.123306 343.902 3.00869 343.902 6.568C343.902 10.1273 341.017 13.0127 337.458 13.0127Z"/>
<path d="M290.197 13.0127C286.637 13.0127 283.752 10.1273 283.752 6.568C283.752 3.00869 286.637 0.123303 290.197 0.123303C293.756 0.123304 296.641 3.00869 296.641 6.568C296.641 10.1273 293.756 13.0127 290.197 13.0127Z"/>
<path d="M242.936 13.0127C239.376 13.0127 236.491 10.1273 236.491 6.56799C236.491 3.00869 239.376 0.123301 242.936 0.123301C246.495 0.123302 249.38 3.00869 249.38 6.56799C249.38 10.1273 246.495 13.0127 242.936 13.0127Z"/>
<path d="M195.675 13.0127C192.115 13.0127 189.23 10.1273 189.23 6.56799C189.23 3.00869 192.115 0.123299 195.675 0.123299C199.234 0.123299 202.119 3.00869 202.119 6.56799C202.119 10.1273 199.234 13.0127 195.675 13.0127Z"/>
<path d="M148.413 13.0127C144.854 13.0127 141.969 10.1273 141.969 6.56799C141.969 3.00868 144.854 0.123297 148.413 0.123297C151.973 0.123297 154.858 3.00868 154.858 6.56799C154.858 10.1273 151.973 13.0127 148.413 13.0127Z"/>
<path d="M101.152 13.0127C97.5931 13.0127 94.7077 10.1273 94.7077 6.56799C94.7077 3.00868 97.5931 0.123295 101.152 0.123295C104.712 0.123295 107.597 3.00868 107.597 6.56799C107.597 10.1273 104.712 13.0127 101.152 13.0127Z"/>
<path d="M53.8913 13.0127C50.332 13.0127 47.4466 10.1273 47.4466 6.56799C47.4466 3.00868 50.332 0.123293 53.8913 0.123293C57.4506 0.123293 60.336 3.00868 60.336 6.56799C60.336 10.1273 57.4506 13.0127 53.8913 13.0127Z"/>
<path d="M6.63025 13.0127C3.07095 13.0127 0.185559 10.1273 0.185559 6.56798C0.185559 3.00868 3.07095 0.123291 6.63025 0.123291C10.1896 0.123291 13.0749 3.00868 13.0749 6.56798C13.0749 10.1273 10.1896 13.0127 6.63025 13.0127Z"/>
<path d="M384.719 60.2738C381.16 60.2738 378.274 57.3884 378.274 53.8291C378.274 50.2698 381.16 47.3844 384.719 47.3844C388.278 47.3844 391.164 50.2698 391.164 53.8291C391.164 57.3884 388.278 60.2738 384.719 60.2738Z"/>
<path d="M337.458 60.2738C333.898 60.2738 331.013 57.3884 331.013 53.8291C331.013 50.2698 333.898 47.3844 337.458 47.3844C341.017 47.3844 343.902 50.2698 343.902 53.8291C343.902 57.3884 341.017 60.2738 337.458 60.2738Z"/>
<path d="M290.197 60.2738C286.637 60.2738 283.752 57.3884 283.752 53.8291C283.752 50.2698 286.637 47.3844 290.197 47.3844C293.756 47.3844 296.641 50.2698 296.641 53.8291C296.641 57.3884 293.756 60.2738 290.197 60.2738Z"/>
<path d="M242.936 60.2738C239.376 60.2738 236.491 57.3884 236.491 53.8291C236.491 50.2698 239.376 47.3844 242.936 47.3844C246.495 47.3844 249.38 50.2698 249.38 53.8291C249.38 57.3884 246.495 60.2738 242.936 60.2738Z"/>
<path d="M195.675 60.2738C192.115 60.2738 189.23 57.3884 189.23 53.8291C189.23 50.2698 192.115 47.3844 195.675 47.3844C199.234 47.3844 202.119 50.2698 202.119 53.8291C202.119 57.3884 199.234 60.2738 195.675 60.2738Z"/>
<path d="M148.413 60.2738C144.854 60.2738 141.969 57.3884 141.969 53.8291C141.969 50.2698 144.854 47.3844 148.413 47.3844C151.973 47.3844 154.858 50.2698 154.858 53.8291C154.858 57.3884 151.973 60.2738 148.413 60.2738Z"/>
<path d="M101.152 60.2738C97.5931 60.2738 94.7077 57.3884 94.7077 53.8291C94.7077 50.2698 97.5931 47.3844 101.152 47.3844C104.712 47.3844 107.597 50.2698 107.597 53.8291C107.597 57.3884 104.712 60.2738 101.152 60.2738Z"/>
<path d="M53.8913 60.2738C50.332 60.2738 47.4466 57.3884 47.4466 53.8291C47.4466 50.2698 50.332 47.3844 53.8913 47.3844C57.4506 47.3844 60.336 50.2698 60.336 53.8291C60.336 57.3884 57.4506 60.2738 53.8913 60.2738Z"/>
<path d="M6.63025 60.2738C3.07094 60.2738 0.185557 57.3884 0.185557 53.8291C0.185557 50.2698 3.07094 47.3844 6.63025 47.3844C10.1896 47.3844 13.0749 50.2698 13.0749 53.8291C13.0749 57.3884 10.1896 60.2738 6.63025 60.2738Z"/>
<path d="M384.719 107.535C381.16 107.535 378.274 104.649 378.274 101.09C378.274 97.5309 381.16 94.6455 384.719 94.6455C388.278 94.6455 391.164 97.5309 391.164 101.09C391.164 104.649 388.278 107.535 384.719 107.535Z"/>
<path d="M337.458 107.535C333.898 107.535 331.013 104.649 331.013 101.09C331.013 97.5309 333.898 94.6455 337.458 94.6455C341.017 94.6455 343.902 97.5309 343.902 101.09C343.902 104.649 341.017 107.535 337.458 107.535Z"/>
<path d="M290.197 107.535C286.637 107.535 283.752 104.649 283.752 101.09C283.752 97.5309 286.637 94.6455 290.197 94.6455C293.756 94.6455 296.641 97.5309 296.641 101.09C296.641 104.649 293.756 107.535 290.197 107.535Z"/>
<path d="M242.936 107.535C239.376 107.535 236.491 104.649 236.491 101.09C236.491 97.5309 239.376 94.6455 242.936 94.6455C246.495 94.6455 249.38 97.5309 249.38 101.09C249.38 104.649 246.495 107.535 242.936 107.535Z"/>
<path d="M195.675 107.535C192.115 107.535 189.23 104.649 189.23 101.09C189.23 97.5308 192.115 94.6455 195.675 94.6455C199.234 94.6455 202.119 97.5308 202.119 101.09C202.119 104.649 199.234 107.535 195.675 107.535Z"/>
<path d="M148.413 107.535C144.854 107.535 141.969 104.649 141.969 101.09C141.969 97.5308 144.854 94.6455 148.413 94.6455C151.973 94.6455 154.858 97.5308 154.858 101.09C154.858 104.649 151.973 107.535 148.413 107.535Z"/>
<path d="M101.152 107.535C97.5931 107.535 94.7077 104.649 94.7077 101.09C94.7077 97.5308 97.5931 94.6455 101.152 94.6455C104.712 94.6455 107.597 97.5308 107.597 101.09C107.597 104.649 104.712 107.535 101.152 107.535Z"/>
<path d="M53.8913 107.535C50.332 107.535 47.4466 104.649 47.4466 101.09C47.4466 97.5308 50.332 94.6455 53.8913 94.6455C57.4506 94.6455 60.336 97.5308 60.336 101.09C60.336 104.649 57.4506 107.535 53.8913 107.535Z"/>
<path d="M6.63025 107.535C3.07094 107.535 0.185555 104.649 0.185555 101.09C0.185555 97.5308 3.07094 94.6455 6.63025 94.6455C10.1896 94.6455 13.0749 97.5308 13.0749 101.09C13.0749 104.649 10.1896 107.535 6.63025 107.535Z"/>
<path d="M384.719 154.796C381.16 154.796 378.274 151.911 378.274 148.351C378.274 144.792 381.16 141.907 384.719 141.907C388.278 141.907 391.164 144.792 391.164 148.351C391.164 151.911 388.278 154.796 384.719 154.796Z"/>
<path d="M337.458 154.796C333.898 154.796 331.013 151.911 331.013 148.351C331.013 144.792 333.898 141.907 337.458 141.907C341.017 141.907 343.902 144.792 343.902 148.351C343.902 151.911 341.017 154.796 337.458 154.796Z"/>
<path d="M290.197 154.796C286.637 154.796 283.752 151.911 283.752 148.351C283.752 144.792 286.637 141.907 290.197 141.907C293.756 141.907 296.641 144.792 296.641 148.351C296.641 151.911 293.756 154.796 290.197 154.796Z"/>
<path d="M242.936 154.796C239.376 154.796 236.491 151.911 236.491 148.351C236.491 144.792 239.376 141.907 242.936 141.907C246.495 141.907 249.38 144.792 249.38 148.351C249.38 151.911 246.495 154.796 242.936 154.796Z"/>
<path d="M195.675 154.796C192.115 154.796 189.23 151.911 189.23 148.351C189.23 144.792 192.115 141.907 195.675 141.907C199.234 141.907 202.119 144.792 202.119 148.351C202.119 151.911 199.234 154.796 195.675 154.796Z"/>
<path d="M148.413 154.796C144.854 154.796 141.969 151.911 141.969 148.351C141.969 144.792 144.854 141.907 148.413 141.907C151.973 141.907 154.858 144.792 154.858 148.351C154.858 151.911 151.973 154.796 148.413 154.796Z"/>
<path d="M101.152 154.796C97.5931 154.796 94.7077 151.911 94.7077 148.351C94.7077 144.792 97.5931 141.907 101.152 141.907C104.712 141.907 107.597 144.792 107.597 148.351C107.597 151.911 104.712 154.796 101.152 154.796Z"/>
<path d="M53.8913 154.796C50.332 154.796 47.4466 151.911 47.4466 148.351C47.4466 144.792 50.332 141.907 53.8913 141.907C57.4506 141.907 60.336 144.792 60.336 148.351C60.336 151.911 57.4506 154.796 53.8913 154.796Z"/>
<path d="M6.63025 154.796C3.07094 154.796 0.185553 151.911 0.185553 148.351C0.185553 144.792 3.07094 141.907 6.63025 141.907C10.1896 141.907 13.0749 144.792 13.0749 148.351C13.0749 151.911 10.1896 154.796 6.63025 154.796Z"/>
<path d="M384.719 202.057C381.16 202.057 378.274 199.172 378.274 195.612C378.274 192.053 381.16 189.168 384.719 189.168C388.278 189.168 391.164 192.053 391.164 195.612C391.164 199.172 388.278 202.057 384.719 202.057Z"/>
<path d="M337.458 202.057C333.898 202.057 331.013 199.172 331.013 195.612C331.013 192.053 333.898 189.168 337.458 189.168C341.017 189.168 343.902 192.053 343.902 195.612C343.902 199.172 341.017 202.057 337.458 202.057Z"/>
<path d="M290.197 202.057C286.637 202.057 283.752 199.172 283.752 195.612C283.752 192.053 286.637 189.168 290.197 189.168C293.756 189.168 296.641 192.053 296.641 195.612C296.641 199.172 293.756 202.057 290.197 202.057Z"/>
<path d="M242.936 202.057C239.376 202.057 236.491 199.172 236.491 195.612C236.491 192.053 239.376 189.168 242.936 189.168C246.495 189.168 249.38 192.053 249.38 195.612C249.38 199.172 246.495 202.057 242.936 202.057Z"/>
<path d="M195.675 202.057C192.115 202.057 189.23 199.172 189.23 195.612C189.23 192.053 192.115 189.168 195.675 189.168C199.234 189.168 202.119 192.053 202.119 195.612C202.119 199.172 199.234 202.057 195.675 202.057Z"/>
<path d="M148.413 202.057C144.854 202.057 141.969 199.172 141.969 195.612C141.969 192.053 144.854 189.168 148.413 189.168C151.973 189.168 154.858 192.053 154.858 195.612C154.858 199.172 151.973 202.057 148.413 202.057Z"/>
<path d="M101.152 202.057C97.5931 202.057 94.7077 199.172 94.7077 195.612C94.7077 192.053 97.5931 189.168 101.152 189.168C104.712 189.168 107.597 192.053 107.597 195.612C107.597 199.172 104.712 202.057 101.152 202.057Z"/>
<path d="M53.8913 202.057C50.332 202.057 47.4466 199.172 47.4466 195.612C47.4466 192.053 50.332 189.168 53.8913 189.168C57.4506 189.168 60.336 192.053 60.336 195.612C60.336 199.172 57.4506 202.057 53.8913 202.057Z"/>
<path d="M6.63024 202.057C3.07094 202.057 0.185551 199.172 0.185551 195.612C0.185551 192.053 3.07094 189.168 6.63024 189.168C10.1895 189.168 13.0749 192.053 13.0749 195.612C13.0749 199.172 10.1895 202.057 6.63024 202.057Z"/>
<path d="M384.719 249.318C381.16 249.318 378.274 246.433 378.274 242.873C378.274 239.314 381.16 236.429 384.719 236.429C388.278 236.429 391.164 239.314 391.164 242.873C391.164 246.433 388.278 249.318 384.719 249.318Z"/>
<path d="M337.458 249.318C333.898 249.318 331.013 246.433 331.013 242.873C331.013 239.314 333.898 236.429 337.458 236.429C341.017 236.429 343.902 239.314 343.902 242.873C343.902 246.433 341.017 249.318 337.458 249.318Z"/>
<path d="M290.197 249.318C286.637 249.318 283.752 246.433 283.752 242.873C283.752 239.314 286.637 236.429 290.197 236.429C293.756 236.429 296.641 239.314 296.641 242.873C296.641 246.433 293.756 249.318 290.197 249.318Z"/>
<path d="M242.936 249.318C239.376 249.318 236.491 246.433 236.491 242.873C236.491 239.314 239.376 236.429 242.936 236.429C246.495 236.429 249.38 239.314 249.38 242.873C249.38 246.433 246.495 249.318 242.936 249.318Z"/>
<path d="M195.675 249.318C192.115 249.318 189.23 246.433 189.23 242.873C189.23 239.314 192.115 236.429 195.675 236.429C199.234 236.429 202.119 239.314 202.119 242.873C202.119 246.433 199.234 249.318 195.675 249.318Z"/>
<path d="M148.413 249.318C144.854 249.318 141.969 246.433 141.969 242.873C141.969 239.314 144.854 236.429 148.413 236.429C151.973 236.429 154.858 239.314 154.858 242.873C154.858 246.433 151.973 249.318 148.413 249.318Z"/>
<path d="M101.152 249.318C97.5931 249.318 94.7077 246.433 94.7077 242.873C94.7077 239.314 97.5931 236.429 101.152 236.429C104.712 236.429 107.597 239.314 107.597 242.873C107.597 246.433 104.712 249.318 101.152 249.318Z"/>
<path d="M53.8913 249.318C50.332 249.318 47.4466 246.433 47.4466 242.873C47.4466 239.314 50.332 236.429 53.8913 236.429C57.4506 236.429 60.336 239.314 60.336 242.873C60.336 246.433 57.4506 249.318 53.8913 249.318Z"/>
<path d="M6.63024 249.318C3.07094 249.318 0.185549 246.433 0.185549 242.873C0.185549 239.314 3.07094 236.429 6.63024 236.429C10.1895 236.429 13.0749 239.314 13.0749 242.873C13.0749 246.433 10.1895 249.318 6.63024 249.318Z"/>
<path d="M384.719 296.579C381.16 296.579 378.274 293.694 378.274 290.134C378.274 286.575 381.16 283.69 384.719 283.69C388.278 283.69 391.164 286.575 391.164 290.134C391.164 293.694 388.278 296.579 384.719 296.579Z"/>
<path d="M337.458 296.579C333.898 296.579 331.013 293.694 331.013 290.134C331.013 286.575 333.898 283.69 337.458 283.69C341.017 283.69 343.902 286.575 343.902 290.134C343.902 293.694 341.017 296.579 337.458 296.579Z"/>
<path d="M290.197 296.579C286.637 296.579 283.752 293.694 283.752 290.134C283.752 286.575 286.637 283.69 290.197 283.69C293.756 283.69 296.641 286.575 296.641 290.134C296.641 293.694 293.756 296.579 290.197 296.579Z"/>
<path d="M242.936 296.579C239.376 296.579 236.491 293.694 236.491 290.134C236.491 286.575 239.376 283.69 242.936 283.69C246.495 283.69 249.38 286.575 249.38 290.134C249.38 293.694 246.495 296.579 242.936 296.579Z"/>
<path d="M195.675 296.579C192.115 296.579 189.23 293.694 189.23 290.134C189.23 286.575 192.115 283.69 195.675 283.69C199.234 283.69 202.119 286.575 202.119 290.134C202.119 293.694 199.234 296.579 195.675 296.579Z"/>
<path d="M148.413 296.579C144.854 296.579 141.969 293.694 141.969 290.134C141.969 286.575 144.854 283.69 148.413 283.69C151.973 283.69 154.858 286.575 154.858 290.134C154.858 293.694 151.973 296.579 148.413 296.579Z"/>
<path d="M101.152 296.579C97.5931 296.579 94.7077 293.694 94.7077 290.134C94.7077 286.575 97.5931 283.69 101.152 283.69C104.712 283.69 107.597 286.575 107.597 290.134C107.597 293.694 104.712 296.579 101.152 296.579Z"/>
<path d="M53.8913 296.579C50.332 296.579 47.4466 293.694 47.4466 290.134C47.4466 286.575 50.332 283.69 53.8913 283.69C57.4506 283.69 60.336 286.575 60.336 290.134C60.336 293.694 57.4506 296.579 53.8913 296.579Z"/>
<path d="M6.63024 296.579C3.07093 296.579 0.185547 293.694 0.185547 290.134C0.185547 286.575 3.07093 283.69 6.63024 283.69C10.1895 283.69 13.0749 286.575 13.0749 290.134C13.0749 293.694 10.1895 296.579 6.63024 296.579Z"/>
</mask>
<path d="M384.719 13.0127C381.16 13.0127 378.274 10.1273 378.274 6.568C378.274 3.00869 381.16 0.123307 384.719 0.123308C388.278 0.123308 391.164 3.0087 391.164 6.568C391.164 10.1273 388.278 13.0127 384.719 13.0127Z" fill="#144356"/>
<path d="M337.458 13.0127C333.898 13.0127 331.013 10.1273 331.013 6.568C331.013 3.00869 333.898 0.123305 337.458 0.123305C341.017 0.123306 343.902 3.00869 343.902 6.568C343.902 10.1273 341.017 13.0127 337.458 13.0127Z" fill="#144356"/>
<path d="M290.197 13.0127C286.637 13.0127 283.752 10.1273 283.752 6.568C283.752 3.00869 286.637 0.123303 290.197 0.123303C293.756 0.123304 296.641 3.00869 296.641 6.568C296.641 10.1273 293.756 13.0127 290.197 13.0127Z" fill="#144356"/>
<path d="M242.936 13.0127C239.376 13.0127 236.491 10.1273 236.491 6.56799C236.491 3.00869 239.376 0.123301 242.936 0.123301C246.495 0.123302 249.38 3.00869 249.38 6.56799C249.38 10.1273 246.495 13.0127 242.936 13.0127Z" fill="#144356"/>
<path d="M195.675 13.0127C192.115 13.0127 189.23 10.1273 189.23 6.56799C189.23 3.00869 192.115 0.123299 195.675 0.123299C199.234 0.123299 202.119 3.00869 202.119 6.56799C202.119 10.1273 199.234 13.0127 195.675 13.0127Z" fill="#144356"/>
<path d="M148.413 13.0127C144.854 13.0127 141.969 10.1273 141.969 6.56799C141.969 3.00868 144.854 0.123297 148.413 0.123297C151.973 0.123297 154.858 3.00868 154.858 6.56799C154.858 10.1273 151.973 13.0127 148.413 13.0127Z" fill="#144356"/>
<path d="M101.152 13.0127C97.5931 13.0127 94.7077 10.1273 94.7077 6.56799C94.7077 3.00868 97.5931 0.123295 101.152 0.123295C104.712 0.123295 107.597 3.00868 107.597 6.56799C107.597 10.1273 104.712 13.0127 101.152 13.0127Z" fill="#144356"/>
<path d="M53.8913 13.0127C50.332 13.0127 47.4466 10.1273 47.4466 6.56799C47.4466 3.00868 50.332 0.123293 53.8913 0.123293C57.4506 0.123293 60.336 3.00868 60.336 6.56799C60.336 10.1273 57.4506 13.0127 53.8913 13.0127Z" fill="#144356"/>
<path d="M6.63025 13.0127C3.07095 13.0127 0.185559 10.1273 0.185559 6.56798C0.185559 3.00868 3.07095 0.123291 6.63025 0.123291C10.1896 0.123291 13.0749 3.00868 13.0749 6.56798C13.0749 10.1273 10.1896 13.0127 6.63025 13.0127Z" fill="#144356"/>
<path d="M384.719 60.2738C381.16 60.2738 378.274 57.3884 378.274 53.8291C378.274 50.2698 381.16 47.3844 384.719 47.3844C388.278 47.3844 391.164 50.2698 391.164 53.8291C391.164 57.3884 388.278 60.2738 384.719 60.2738Z" fill="#144356"/>
<path d="M337.458 60.2738C333.898 60.2738 331.013 57.3884 331.013 53.8291C331.013 50.2698 333.898 47.3844 337.458 47.3844C341.017 47.3844 343.902 50.2698 343.902 53.8291C343.902 57.3884 341.017 60.2738 337.458 60.2738Z" fill="#144356"/>
<path d="M290.197 60.2738C286.637 60.2738 283.752 57.3884 283.752 53.8291C283.752 50.2698 286.637 47.3844 290.197 47.3844C293.756 47.3844 296.641 50.2698 296.641 53.8291C296.641 57.3884 293.756 60.2738 290.197 60.2738Z" fill="#144356"/>
<path d="M242.936 60.2738C239.376 60.2738 236.491 57.3884 236.491 53.8291C236.491 50.2698 239.376 47.3844 242.936 47.3844C246.495 47.3844 249.38 50.2698 249.38 53.8291C249.38 57.3884 246.495 60.2738 242.936 60.2738Z" fill="#144356"/>
<path d="M195.675 60.2738C192.115 60.2738 189.23 57.3884 189.23 53.8291C189.23 50.2698 192.115 47.3844 195.675 47.3844C199.234 47.3844 202.119 50.2698 202.119 53.8291C202.119 57.3884 199.234 60.2738 195.675 60.2738Z" fill="#144356"/>
<path d="M148.413 60.2738C144.854 60.2738 141.969 57.3884 141.969 53.8291C141.969 50.2698 144.854 47.3844 148.413 47.3844C151.973 47.3844 154.858 50.2698 154.858 53.8291C154.858 57.3884 151.973 60.2738 148.413 60.2738Z" fill="#144356"/>
<path d="M101.152 60.2738C97.5931 60.2738 94.7077 57.3884 94.7077 53.8291C94.7077 50.2698 97.5931 47.3844 101.152 47.3844C104.712 47.3844 107.597 50.2698 107.597 53.8291C107.597 57.3884 104.712 60.2738 101.152 60.2738Z" fill="#144356"/>
<path d="M53.8913 60.2738C50.332 60.2738 47.4466 57.3884 47.4466 53.8291C47.4466 50.2698 50.332 47.3844 53.8913 47.3844C57.4506 47.3844 60.336 50.2698 60.336 53.8291C60.336 57.3884 57.4506 60.2738 53.8913 60.2738Z" fill="#144356"/>
<path d="M6.63025 60.2738C3.07094 60.2738 0.185557 57.3884 0.185557 53.8291C0.185557 50.2698 3.07094 47.3844 6.63025 47.3844C10.1896 47.3844 13.0749 50.2698 13.0749 53.8291C13.0749 57.3884 10.1896 60.2738 6.63025 60.2738Z" fill="#144356"/>
<path d="M384.719 107.535C381.16 107.535 378.274 104.649 378.274 101.09C378.274 97.5309 381.16 94.6455 384.719 94.6455C388.278 94.6455 391.164 97.5309 391.164 101.09C391.164 104.649 388.278 107.535 384.719 107.535Z" fill="#144356"/>
<path d="M337.458 107.535C333.898 107.535 331.013 104.649 331.013 101.09C331.013 97.5309 333.898 94.6455 337.458 94.6455C341.017 94.6455 343.902 97.5309 343.902 101.09C343.902 104.649 341.017 107.535 337.458 107.535Z" fill="#144356"/>
<path d="M290.197 107.535C286.637 107.535 283.752 104.649 283.752 101.09C283.752 97.5309 286.637 94.6455 290.197 94.6455C293.756 94.6455 296.641 97.5309 296.641 101.09C296.641 104.649 293.756 107.535 290.197 107.535Z" fill="#144356"/>
<path d="M242.936 107.535C239.376 107.535 236.491 104.649 236.491 101.09C236.491 97.5309 239.376 94.6455 242.936 94.6455C246.495 94.6455 249.38 97.5309 249.38 101.09C249.38 104.649 246.495 107.535 242.936 107.535Z" fill="#144356"/>
<path d="M195.675 107.535C192.115 107.535 189.23 104.649 189.23 101.09C189.23 97.5308 192.115 94.6455 195.675 94.6455C199.234 94.6455 202.119 97.5308 202.119 101.09C202.119 104.649 199.234 107.535 195.675 107.535Z" fill="#144356"/>
<path d="M148.413 107.535C144.854 107.535 141.969 104.649 141.969 101.09C141.969 97.5308 144.854 94.6455 148.413 94.6455C151.973 94.6455 154.858 97.5308 154.858 101.09C154.858 104.649 151.973 107.535 148.413 107.535Z" fill="#144356"/>
<path d="M101.152 107.535C97.5931 107.535 94.7077 104.649 94.7077 101.09C94.7077 97.5308 97.5931 94.6455 101.152 94.6455C104.712 94.6455 107.597 97.5308 107.597 101.09C107.597 104.649 104.712 107.535 101.152 107.535Z" fill="#144356"/>
<path d="M53.8913 107.535C50.332 107.535 47.4466 104.649 47.4466 101.09C47.4466 97.5308 50.332 94.6455 53.8913 94.6455C57.4506 94.6455 60.336 97.5308 60.336 101.09C60.336 104.649 57.4506 107.535 53.8913 107.535Z" fill="#144356"/>
<path d="M6.63025 107.535C3.07094 107.535 0.185555 104.649 0.185555 101.09C0.185555 97.5308 3.07094 94.6455 6.63025 94.6455C10.1896 94.6455 13.0749 97.5308 13.0749 101.09C13.0749 104.649 10.1896 107.535 6.63025 107.535Z" fill="#144356"/>
<path d="M384.719 154.796C381.16 154.796 378.274 151.911 378.274 148.351C378.274 144.792 381.16 141.907 384.719 141.907C388.278 141.907 391.164 144.792 391.164 148.351C391.164 151.911 388.278 154.796 384.719 154.796Z" fill="#144356"/>
<path d="M337.458 154.796C333.898 154.796 331.013 151.911 331.013 148.351C331.013 144.792 333.898 141.907 337.458 141.907C341.017 141.907 343.902 144.792 343.902 148.351C343.902 151.911 341.017 154.796 337.458 154.796Z" fill="#144356"/>
<path d="M290.197 154.796C286.637 154.796 283.752 151.911 283.752 148.351C283.752 144.792 286.637 141.907 290.197 141.907C293.756 141.907 296.641 144.792 296.641 148.351C296.641 151.911 293.756 154.796 290.197 154.796Z" fill="#144356"/>
<path d="M242.936 154.796C239.376 154.796 236.491 151.911 236.491 148.351C236.491 144.792 239.376 141.907 242.936 141.907C246.495 141.907 249.38 144.792 249.38 148.351C249.38 151.911 246.495 154.796 242.936 154.796Z" fill="#144356"/>
<path d="M195.675 154.796C192.115 154.796 189.23 151.911 189.23 148.351C189.23 144.792 192.115 141.907 195.675 141.907C199.234 141.907 202.119 144.792 202.119 148.351C202.119 151.911 199.234 154.796 195.675 154.796Z" fill="#144356"/>
<path d="M148.413 154.796C144.854 154.796 141.969 151.911 141.969 148.351C141.969 144.792 144.854 141.907 148.413 141.907C151.973 141.907 154.858 144.792 154.858 148.351C154.858 151.911 151.973 154.796 148.413 154.796Z" fill="#144356"/>
<path d="M101.152 154.796C97.5931 154.796 94.7077 151.911 94.7077 148.351C94.7077 144.792 97.5931 141.907 101.152 141.907C104.712 141.907 107.597 144.792 107.597 148.351C107.597 151.911 104.712 154.796 101.152 154.796Z" fill="#144356"/>
<path d="M53.8913 154.796C50.332 154.796 47.4466 151.911 47.4466 148.351C47.4466 144.792 50.332 141.907 53.8913 141.907C57.4506 141.907 60.336 144.792 60.336 148.351C60.336 151.911 57.4506 154.796 53.8913 154.796Z" fill="#144356"/>
<path d="M6.63025 154.796C3.07094 154.796 0.185553 151.911 0.185553 148.351C0.185553 144.792 3.07094 141.907 6.63025 141.907C10.1896 141.907 13.0749 144.792 13.0749 148.351C13.0749 151.911 10.1896 154.796 6.63025 154.796Z" fill="#144356"/>
<path d="M384.719 202.057C381.16 202.057 378.274 199.172 378.274 195.612C378.274 192.053 381.16 189.168 384.719 189.168C388.278 189.168 391.164 192.053 391.164 195.612C391.164 199.172 388.278 202.057 384.719 202.057Z" fill="#144356"/>
<path d="M337.458 202.057C333.898 202.057 331.013 199.172 331.013 195.612C331.013 192.053 333.898 189.168 337.458 189.168C341.017 189.168 343.902 192.053 343.902 195.612C343.902 199.172 341.017 202.057 337.458 202.057Z" fill="#144356"/>
<path d="M290.197 202.057C286.637 202.057 283.752 199.172 283.752 195.612C283.752 192.053 286.637 189.168 290.197 189.168C293.756 189.168 296.641 192.053 296.641 195.612C296.641 199.172 293.756 202.057 290.197 202.057Z" fill="#144356"/>
<path d="M242.936 202.057C239.376 202.057 236.491 199.172 236.491 195.612C236.491 192.053 239.376 189.168 242.936 189.168C246.495 189.168 249.38 192.053 249.38 195.612C249.38 199.172 246.495 202.057 242.936 202.057Z" fill="#144356"/>
<path d="M195.675 202.057C192.115 202.057 189.23 199.172 189.23 195.612C189.23 192.053 192.115 189.168 195.675 189.168C199.234 189.168 202.119 192.053 202.119 195.612C202.119 199.172 199.234 202.057 195.675 202.057Z" fill="#144356"/>
<path d="M148.413 202.057C144.854 202.057 141.969 199.172 141.969 195.612C141.969 192.053 144.854 189.168 148.413 189.168C151.973 189.168 154.858 192.053 154.858 195.612C154.858 199.172 151.973 202.057 148.413 202.057Z" fill="#144356"/>
<path d="M101.152 202.057C97.5931 202.057 94.7077 199.172 94.7077 195.612C94.7077 192.053 97.5931 189.168 101.152 189.168C104.712 189.168 107.597 192.053 107.597 195.612C107.597 199.172 104.712 202.057 101.152 202.057Z" fill="#144356"/>
<path d="M53.8913 202.057C50.332 202.057 47.4466 199.172 47.4466 195.612C47.4466 192.053 50.332 189.168 53.8913 189.168C57.4506 189.168 60.336 192.053 60.336 195.612C60.336 199.172 57.4506 202.057 53.8913 202.057Z" fill="#144356"/>
<path d="M6.63024 202.057C3.07094 202.057 0.185551 199.172 0.185551 195.612C0.185551 192.053 3.07094 189.168 6.63024 189.168C10.1895 189.168 13.0749 192.053 13.0749 195.612C13.0749 199.172 10.1895 202.057 6.63024 202.057Z" fill="#144356"/>
<path d="M384.719 249.318C381.16 249.318 378.274 246.433 378.274 242.873C378.274 239.314 381.16 236.429 384.719 236.429C388.278 236.429 391.164 239.314 391.164 242.873C391.164 246.433 388.278 249.318 384.719 249.318Z" fill="#144356"/>
<path d="M337.458 249.318C333.898 249.318 331.013 246.433 331.013 242.873C331.013 239.314 333.898 236.429 337.458 236.429C341.017 236.429 343.902 239.314 343.902 242.873C343.902 246.433 341.017 249.318 337.458 249.318Z" fill="#144356"/>
<path d="M290.197 249.318C286.637 249.318 283.752 246.433 283.752 242.873C283.752 239.314 286.637 236.429 290.197 236.429C293.756 236.429 296.641 239.314 296.641 242.873C296.641 246.433 293.756 249.318 290.197 249.318Z" fill="#144356"/>
<path d="M242.936 249.318C239.376 249.318 236.491 246.433 236.491 242.873C236.491 239.314 239.376 236.429 242.936 236.429C246.495 236.429 249.38 239.314 249.38 242.873C249.38 246.433 246.495 249.318 242.936 249.318Z" fill="#144356"/>
<path d="M195.675 249.318C192.115 249.318 189.23 246.433 189.23 242.873C189.23 239.314 192.115 236.429 195.675 236.429C199.234 236.429 202.119 239.314 202.119 242.873C202.119 246.433 199.234 249.318 195.675 249.318Z" fill="#144356"/>
<path d="M148.413 249.318C144.854 249.318 141.969 246.433 141.969 242.873C141.969 239.314 144.854 236.429 148.413 236.429C151.973 236.429 154.858 239.314 154.858 242.873C154.858 246.433 151.973 249.318 148.413 249.318Z" fill="#144356"/>
<path d="M101.152 249.318C97.5931 249.318 94.7077 246.433 94.7077 242.873C94.7077 239.314 97.5931 236.429 101.152 236.429C104.712 236.429 107.597 239.314 107.597 242.873C107.597 246.433 104.712 249.318 101.152 249.318Z" fill="#144356"/>
<path d="M53.8913 249.318C50.332 249.318 47.4466 246.433 47.4466 242.873C47.4466 239.314 50.332 236.429 53.8913 236.429C57.4506 236.429 60.336 239.314 60.336 242.873C60.336 246.433 57.4506 249.318 53.8913 249.318Z" fill="#144356"/>
<path d="M6.63024 249.318C3.07094 249.318 0.185549 246.433 0.185549 242.873C0.185549 239.314 3.07094 236.429 6.63024 236.429C10.1895 236.429 13.0749 239.314 13.0749 242.873C13.0749 246.433 10.1895 249.318 6.63024 249.318Z" fill="#144356"/>
<path d="M384.719 296.579C381.16 296.579 378.274 293.694 378.274 290.134C378.274 286.575 381.16 283.69 384.719 283.69C388.278 283.69 391.164 286.575 391.164 290.134C391.164 293.694 388.278 296.579 384.719 296.579Z" fill="#144356"/>
<path d="M337.458 296.579C333.898 296.579 331.013 293.694 331.013 290.134C331.013 286.575 333.898 283.69 337.458 283.69C341.017 283.69 343.902 286.575 343.902 290.134C343.902 293.694 341.017 296.579 337.458 296.579Z" fill="#144356"/>
<path d="M290.197 296.579C286.637 296.579 283.752 293.694 283.752 290.134C283.752 286.575 286.637 283.69 290.197 283.69C293.756 283.69 296.641 286.575 296.641 290.134C296.641 293.694 293.756 296.579 290.197 296.579Z" fill="#144356"/>
<path d="M242.936 296.579C239.376 296.579 236.491 293.694 236.491 290.134C236.491 286.575 239.376 283.69 242.936 283.69C246.495 283.69 249.38 286.575 249.38 290.134C249.38 293.694 246.495 296.579 242.936 296.579Z" fill="#144356"/>
<path d="M195.675 296.579C192.115 296.579 189.23 293.694 189.23 290.134C189.23 286.575 192.115 283.69 195.675 283.69C199.234 283.69 202.119 286.575 202.119 290.134C202.119 293.694 199.234 296.579 195.675 296.579Z" fill="#144356"/>
<path d="M148.413 296.579C144.854 296.579 141.969 293.694 141.969 290.134C141.969 286.575 144.854 283.69 148.413 283.69C151.973 283.69 154.858 286.575 154.858 290.134C154.858 293.694 151.973 296.579 148.413 296.579Z" fill="#144356"/>
<path d="M101.152 296.579C97.5931 296.579 94.7077 293.694 94.7077 290.134C94.7077 286.575 97.5931 283.69 101.152 283.69C104.712 283.69 107.597 286.575 107.597 290.134C107.597 293.694 104.712 296.579 101.152 296.579Z" fill="#144356"/>
<path d="M53.8913 296.579C50.332 296.579 47.4466 293.694 47.4466 290.134C47.4466 286.575 50.332 283.69 53.8913 283.69C57.4506 283.69 60.336 286.575 60.336 290.134C60.336 293.694 57.4506 296.579 53.8913 296.579Z" fill="#144356"/>
<path d="M6.63024 296.579C3.07093 296.579 0.185547 293.694 0.185547 290.134C0.185547 286.575 3.07093 283.69 6.63024 283.69C10.1895 283.69 13.0749 286.575 13.0749 290.134C13.0749 293.694 10.1895 296.579 6.63024 296.579Z" fill="#144356"/>
<path d="M384.719 13.0127C381.16 13.0127 378.274 10.1273 378.274 6.568C378.274 3.00869 381.16 0.123307 384.719 0.123308C388.278 0.123308 391.164 3.0087 391.164 6.568C391.164 10.1273 388.278 13.0127 384.719 13.0127Z" stroke="black" stroke-width="1.71858" mask="url(#path-1-inside-1_63_990)"/>
<path d="M337.458 13.0127C333.898 13.0127 331.013 10.1273 331.013 6.568C331.013 3.00869 333.898 0.123305 337.458 0.123305C341.017 0.123306 343.902 3.00869 343.902 6.568C343.902 10.1273 341.017 13.0127 337.458 13.0127Z" stroke="black" stroke-width="1.71858" mask="url(#path-1-inside-1_63_990)"/>
<path d="M290.197 13.0127C286.637 13.0127 283.752 10.1273 283.752 6.568C283.752 3.00869 286.637 0.123303 290.197 0.123303C293.756 0.123304 296.641 3.00869 296.641 6.568C296.641 10.1273 293.756 13.0127 290.197 13.0127Z" stroke="black" stroke-width="1.71858" mask="url(#path-1-inside-1_63_990)"/>
<path d="M242.936 13.0127C239.376 13.0127 236.491 10.1273 236.491 6.56799C236.491 3.00869 239.376 0.123301 242.936 0.123301C246.495 0.123302 249.38 3.00869 249.38 6.56799C249.38 10.1273 246.495 13.0127 242.936 13.0127Z" stroke="black" stroke-width="1.71858" mask="url(#path-1-inside-1_63_990)"/>
<path d="M195.675 13.0127C192.115 13.0127 189.23 10.1273 189.23 6.56799C189.23 3.00869 192.115 0.123299 195.675 0.123299C199.234 0.123299 202.119 3.00869 202.119 6.56799C202.119 10.1273 199.234 13.0127 195.675 13.0127Z" stroke="black" stroke-width="1.71858" mask="url(#path-1-inside-1_63_990)"/>
<path d="M148.413 13.0127C144.854 13.0127 141.969 10.1273 141.969 6.56799C141.969 3.00868 144.854 0.123297 148.413 0.123297C151.973 0.123297 154.858 3.00868 154.858 6.56799C154.858 10.1273 151.973 13.0127 148.413 13.0127Z" stroke="black" stroke-width="1.71858" mask="url(#path-1-inside-1_63_990)"/>
<path d="M101.152 13.0127C97.5931 13.0127 94.7077 10.1273 94.7077 6.56799C94.7077 3.00868 97.5931 0.123295 101.152 0.123295C104.712 0.123295 107.597 3.00868 107.597 6.56799C107.597 10.1273 104.712 13.0127 101.152 13.0127Z" stroke="black" stroke-width="1.71858" mask="url(#path-1-inside-1_63_990)"/>
<path d="M53.8913 13.0127C50.332 13.0127 47.4466 10.1273 47.4466 6.56799C47.4466 3.00868 50.332 0.123293 53.8913 0.123293C57.4506 0.123293 60.336 3.00868 60.336 6.56799C60.336 10.1273 57.4506 13.0127 53.8913 13.0127Z" stroke="black" stroke-width="1.71858" mask="url(#path-1-inside-1_63_990)"/>
<path d="M6.63025 13.0127C3.07095 13.0127 0.185559 10.1273 0.185559 6.56798C0.185559 3.00868 3.07095 0.123291 6.63025 0.123291C10.1896 0.123291 13.0749 3.00868 13.0749 6.56798C13.0749 10.1273 10.1896 13.0127 6.63025 13.0127Z" stroke="black" stroke-width="1.71858" mask="url(#path-1-inside-1_63_990)"/>
<path d="M384.719 60.2738C381.16 60.2738 378.274 57.3884 378.274 53.8291C378.274 50.2698 381.16 47.3844 384.719 47.3844C388.278 47.3844 391.164 50.2698 391.164 53.8291C391.164 57.3884 388.278 60.2738 384.719 60.2738Z" stroke="black" stroke-width="1.71858" mask="url(#path-1-inside-1_63_990)"/>
<path d="M337.458 60.2738C333.898 60.2738 331.013 57.3884 331.013 53.8291C331.013 50.2698 333.898 47.3844 337.458 47.3844C341.017 47.3844 343.902 50.2698 343.902 53.8291C343.902 57.3884 341.017 60.2738 337.458 60.2738Z" stroke="black" stroke-width="1.71858" mask="url(#path-1-inside-1_63_990)"/>
<path d="M290.197 60.2738C286.637 60.2738 283.752 57.3884 283.752 53.8291C283.752 50.2698 286.637 47.3844 290.197 47.3844C293.756 47.3844 296.641 50.2698 296.641 53.8291C296.641 57.3884 293.756 60.2738 290.197 60.2738Z" stroke="black" stroke-width="1.71858" mask="url(#path-1-inside-1_63_990)"/>
<path d="M242.936 60.2738C239.376 60.2738 236.491 57.3884 236.491 53.8291C236.491 50.2698 239.376 47.3844 242.936 47.3844C246.495 47.3844 249.38 50.2698 249.38 53.8291C249.38 57.3884 246.495 60.2738 242.936 60.2738Z" stroke="black" stroke-width="1.71858" mask="url(#path-1-inside-1_63_990)"/>
<path d="M195.675 60.2738C192.115 60.2738 189.23 57.3884 189.23 53.8291C189.23 50.2698 192.115 47.3844 195.675 47.3844C199.234 47.3844 202.119 50.2698 202.119 53.8291C202.119 57.3884 199.234 60.2738 195.675 60.2738Z" stroke="black" stroke-width="1.71858" mask="url(#path-1-inside-1_63_990)"/>
<path d="M148.413 60.2738C144.854 60.2738 141.969 57.3884 141.969 53.8291C141.969 50.2698 144.854 47.3844 148.413 47.3844C151.973 47.3844 154.858 50.2698 154.858 53.8291C154.858 57.3884 151.973 60.2738 148.413 60.2738Z" stroke="black" stroke-width="1.71858" mask="url(#path-1-inside-1_63_990)"/>
<path d="M101.152 60.2738C97.5931 60.2738 94.7077 57.3884 94.7077 53.8291C94.7077 50.2698 97.5931 47.3844 101.152 47.3844C104.712 47.3844 107.597 50.2698 107.597 53.8291C107.597 57.3884 104.712 60.2738 101.152 60.2738Z" stroke="black" stroke-width="1.71858" mask="url(#path-1-inside-1_63_990)"/>
<path d="M53.8913 60.2738C50.332 60.2738 47.4466 57.3884 47.4466 53.8291C47.4466 50.2698 50.332 47.3844 53.8913 47.3844C57.4506 47.3844 60.336 50.2698 60.336 53.8291C60.336 57.3884 57.4506 60.2738 53.8913 60.2738Z" stroke="black" stroke-width="1.71858" mask="url(#path-1-inside-1_63_990)"/>
<path d="M6.63025 60.2738C3.07094 60.2738 0.185557 57.3884 0.185557 53.8291C0.185557 50.2698 3.07094 47.3844 6.63025 47.3844C10.1896 47.3844 13.0749 50.2698 13.0749 53.8291C13.0749 57.3884 10.1896 60.2738 6.63025 60.2738Z" stroke="black" stroke-width="1.71858" mask="url(#path-1-inside-1_63_990)"/>
<path d="M384.719 107.535C381.16 107.535 378.274 104.649 378.274 101.09C378.274 97.5309 381.16 94.6455 384.719 94.6455C388.278 94.6455 391.164 97.5309 391.164 101.09C391.164 104.649 388.278 107.535 384.719 107.535Z" stroke="black" stroke-width="1.71858" mask="url(#path-1-inside-1_63_990)"/>
<path d="M337.458 107.535C333.898 107.535 331.013 104.649 331.013 101.09C331.013 97.5309 333.898 94.6455 337.458 94.6455C341.017 94.6455 343.902 97.5309 343.902 101.09C343.902 104.649 341.017 107.535 337.458 107.535Z" stroke="black" stroke-width="1.71858" mask="url(#path-1-inside-1_63_990)"/>
<path d="M290.197 107.535C286.637 107.535 283.752 104.649 283.752 101.09C283.752 97.5309 286.637 94.6455 290.197 94.6455C293.756 94.6455 296.641 97.5309 296.641 101.09C296.641 104.649 293.756 107.535 290.197 107.535Z" stroke="black" stroke-width="1.71858" mask="url(#path-1-inside-1_63_990)"/>
<path d="M242.936 107.535C239.376 107.535 236.491 104.649 236.491 101.09C236.491 97.5309 239.376 94.6455 242.936 94.6455C246.495 94.6455 249.38 97.5309 249.38 101.09C249.38 104.649 246.495 107.535 242.936 107.535Z" stroke="black" stroke-width="1.71858" mask="url(#path-1-inside-1_63_990)"/>
<path d="M195.675 107.535C192.115 107.535 189.23 104.649 189.23 101.09C189.23 97.5308 192.115 94.6455 195.675 94.6455C199.234 94.6455 202.119 97.5308 202.119 101.09C202.119 104.649 199.234 107.535 195.675 107.535Z" stroke="black" stroke-width="1.71858" mask="url(#path-1-inside-1_63_990)"/>
<path d="M148.413 107.535C144.854 107.535 141.969 104.649 141.969 101.09C141.969 97.5308 144.854 94.6455 148.413 94.6455C151.973 94.6455 154.858 97.5308 154.858 101.09C154.858 104.649 151.973 107.535 148.413 107.535Z" stroke="black" stroke-width="1.71858" mask="url(#path-1-inside-1_63_990)"/>
<path d="M101.152 107.535C97.5931 107.535 94.7077 104.649 94.7077 101.09C94.7077 97.5308 97.5931 94.6455 101.152 94.6455C104.712 94.6455 107.597 97.5308 107.597 101.09C107.597 104.649 104.712 107.535 101.152 107.535Z" stroke="black" stroke-width="1.71858" mask="url(#path-1-inside-1_63_990)"/>
<path d="M53.8913 107.535C50.332 107.535 47.4466 104.649 47.4466 101.09C47.4466 97.5308 50.332 94.6455 53.8913 94.6455C57.4506 94.6455 60.336 97.5308 60.336 101.09C60.336 104.649 57.4506 107.535 53.8913 107.535Z" stroke="black" stroke-width="1.71858" mask="url(#path-1-inside-1_63_990)"/>
<path d="M6.63025 107.535C3.07094 107.535 0.185555 104.649 0.185555 101.09C0.185555 97.5308 3.07094 94.6455 6.63025 94.6455C10.1896 94.6455 13.0749 97.5308 13.0749 101.09C13.0749 104.649 10.1896 107.535 6.63025 107.535Z" stroke="black" stroke-width="1.71858" mask="url(#path-1-inside-1_63_990)"/>
<path d="M384.719 154.796C381.16 154.796 378.274 151.911 378.274 148.351C378.274 144.792 381.16 141.907 384.719 141.907C388.278 141.907 391.164 144.792 391.164 148.351C391.164 151.911 388.278 154.796 384.719 154.796Z" stroke="black" stroke-width="1.71858" mask="url(#path-1-inside-1_63_990)"/>
<path d="M337.458 154.796C333.898 154.796 331.013 151.911 331.013 148.351C331.013 144.792 333.898 141.907 337.458 141.907C341.017 141.907 343.902 144.792 343.902 148.351C343.902 151.911 341.017 154.796 337.458 154.796Z" stroke="black" stroke-width="1.71858" mask="url(#path-1-inside-1_63_990)"/>
<path d="M290.197 154.796C286.637 154.796 283.752 151.911 283.752 148.351C283.752 144.792 286.637 141.907 290.197 141.907C293.756 141.907 296.641 144.792 296.641 148.351C296.641 151.911 293.756 154.796 290.197 154.796Z" stroke="black" stroke-width="1.71858" mask="url(#path-1-inside-1_63_990)"/>
<path d="M242.936 154.796C239.376 154.796 236.491 151.911 236.491 148.351C236.491 144.792 239.376 141.907 242.936 141.907C246.495 141.907 249.38 144.792 249.38 148.351C249.38 151.911 246.495 154.796 242.936 154.796Z" stroke="black" stroke-width="1.71858" mask="url(#path-1-inside-1_63_990)"/>
<path d="M195.675 154.796C192.115 154.796 189.23 151.911 189.23 148.351C189.23 144.792 192.115 141.907 195.675 141.907C199.234 141.907 202.119 144.792 202.119 148.351C202.119 151.911 199.234 154.796 195.675 154.796Z" stroke="black" stroke-width="1.71858" mask="url(#path-1-inside-1_63_990)"/>
<path d="M148.413 154.796C144.854 154.796 141.969 151.911 141.969 148.351C141.969 144.792 144.854 141.907 148.413 141.907C151.973 141.907 154.858 144.792 154.858 148.351C154.858 151.911 151.973 154.796 148.413 154.796Z" stroke="black" stroke-width="1.71858" mask="url(#path-1-inside-1_63_990)"/>
<path d="M101.152 154.796C97.5931 154.796 94.7077 151.911 94.7077 148.351C94.7077 144.792 97.5931 141.907 101.152 141.907C104.712 141.907 107.597 144.792 107.597 148.351C107.597 151.911 104.712 154.796 101.152 154.796Z" stroke="black" stroke-width="1.71858" mask="url(#path-1-inside-1_63_990)"/>
<path d="M53.8913 154.796C50.332 154.796 47.4466 151.911 47.4466 148.351C47.4466 144.792 50.332 141.907 53.8913 141.907C57.4506 141.907 60.336 144.792 60.336 148.351C60.336 151.911 57.4506 154.796 53.8913 154.796Z" stroke="black" stroke-width="1.71858" mask="url(#path-1-inside-1_63_990)"/>
<path d="M6.63025 154.796C3.07094 154.796 0.185553 151.911 0.185553 148.351C0.185553 144.792 3.07094 141.907 6.63025 141.907C10.1896 141.907 13.0749 144.792 13.0749 148.351C13.0749 151.911 10.1896 154.796 6.63025 154.796Z" stroke="black" stroke-width="1.71858" mask="url(#path-1-inside-1_63_990)"/>
<path d="M384.719 202.057C381.16 202.057 378.274 199.172 378.274 195.612C378.274 192.053 381.16 189.168 384.719 189.168C388.278 189.168 391.164 192.053 391.164 195.612C391.164 199.172 388.278 202.057 384.719 202.057Z" stroke="black" stroke-width="1.71858" mask="url(#path-1-inside-1_63_990)"/>
<path d="M337.458 202.057C333.898 202.057 331.013 199.172 331.013 195.612C331.013 192.053 333.898 189.168 337.458 189.168C341.017 189.168 343.902 192.053 343.902 195.612C343.902 199.172 341.017 202.057 337.458 202.057Z" stroke="black" stroke-width="1.71858" mask="url(#path-1-inside-1_63_990)"/>
<path d="M290.197 202.057C286.637 202.057 283.752 199.172 283.752 195.612C283.752 192.053 286.637 189.168 290.197 189.168C293.756 189.168 296.641 192.053 296.641 195.612C296.641 199.172 293.756 202.057 290.197 202.057Z" stroke="black" stroke-width="1.71858" mask="url(#path-1-inside-1_63_990)"/>
<path d="M242.936 202.057C239.376 202.057 236.491 199.172 236.491 195.612C236.491 192.053 239.376 189.168 242.936 189.168C246.495 189.168 249.38 192.053 249.38 195.612C249.38 199.172 246.495 202.057 242.936 202.057Z" stroke="black" stroke-width="1.71858" mask="url(#path-1-inside-1_63_990)"/>
<path d="M195.675 202.057C192.115 202.057 189.23 199.172 189.23 195.612C189.23 192.053 192.115 189.168 195.675 189.168C199.234 189.168 202.119 192.053 202.119 195.612C202.119 199.172 199.234 202.057 195.675 202.057Z" stroke="black" stroke-width="1.71858" mask="url(#path-1-inside-1_63_990)"/>
<path d="M148.413 202.057C144.854 202.057 141.969 199.172 141.969 195.612C141.969 192.053 144.854 189.168 148.413 189.168C151.973 189.168 154.858 192.053 154.858 195.612C154.858 199.172 151.973 202.057 148.413 202.057Z" stroke="black" stroke-width="1.71858" mask="url(#path-1-inside-1_63_990)"/>
<path d="M101.152 202.057C97.5931 202.057 94.7077 199.172 94.7077 195.612C94.7077 192.053 97.5931 189.168 101.152 189.168C104.712 189.168 107.597 192.053 107.597 195.612C107.597 199.172 104.712 202.057 101.152 202.057Z" stroke="black" stroke-width="1.71858" mask="url(#path-1-inside-1_63_990)"/>
<path d="M53.8913 202.057C50.332 202.057 47.4466 199.172 47.4466 195.612C47.4466 192.053 50.332 189.168 53.8913 189.168C57.4506 189.168 60.336 192.053 60.336 195.612C60.336 199.172 57.4506 202.057 53.8913 202.057Z" stroke="black" stroke-width="1.71858" mask="url(#path-1-inside-1_63_990)"/>
<path d="M6.63024 202.057C3.07094 202.057 0.185551 199.172 0.185551 195.612C0.185551 192.053 3.07094 189.168 6.63024 189.168C10.1895 189.168 13.0749 192.053 13.0749 195.612C13.0749 199.172 10.1895 202.057 6.63024 202.057Z" stroke="black" stroke-width="1.71858" mask="url(#path-1-inside-1_63_990)"/>
<path d="M384.719 249.318C381.16 249.318 378.274 246.433 378.274 242.873C378.274 239.314 381.16 236.429 384.719 236.429C388.278 236.429 391.164 239.314 391.164 242.873C391.164 246.433 388.278 249.318 384.719 249.318Z" stroke="black" stroke-width="1.71858" mask="url(#path-1-inside-1_63_990)"/>
<path d="M337.458 249.318C333.898 249.318 331.013 246.433 331.013 242.873C331.013 239.314 333.898 236.429 337.458 236.429C341.017 236.429 343.902 239.314 343.902 242.873C343.902 246.433 341.017 249.318 337.458 249.318Z" stroke="black" stroke-width="1.71858" mask="url(#path-1-inside-1_63_990)"/>
<path d="M290.197 249.318C286.637 249.318 283.752 246.433 283.752 242.873C283.752 239.314 286.637 236.429 290.197 236.429C293.756 236.429 296.641 239.314 296.641 242.873C296.641 246.433 293.756 249.318 290.197 249.318Z" stroke="black" stroke-width="1.71858" mask="url(#path-1-inside-1_63_990)"/>
<path d="M242.936 249.318C239.376 249.318 236.491 246.433 236.491 242.873C236.491 239.314 239.376 236.429 242.936 236.429C246.495 236.429 249.38 239.314 249.38 242.873C249.38 246.433 246.495 249.318 242.936 249.318Z" stroke="black" stroke-width="1.71858" mask="url(#path-1-inside-1_63_990)"/>
<path d="M195.675 249.318C192.115 249.318 189.23 246.433 189.23 242.873C189.23 239.314 192.115 236.429 195.675 236.429C199.234 236.429 202.119 239.314 202.119 242.873C202.119 246.433 199.234 249.318 195.675 249.318Z" stroke="black" stroke-width="1.71858" mask="url(#path-1-inside-1_63_990)"/>
<path d="M148.413 249.318C144.854 249.318 141.969 246.433 141.969 242.873C141.969 239.314 144.854 236.429 148.413 236.429C151.973 236.429 154.858 239.314 154.858 242.873C154.858 246.433 151.973 249.318 148.413 249.318Z" stroke="black" stroke-width="1.71858" mask="url(#path-1-inside-1_63_990)"/>
<path d="M101.152 249.318C97.5931 249.318 94.7077 246.433 94.7077 242.873C94.7077 239.314 97.5931 236.429 101.152 236.429C104.712 236.429 107.597 239.314 107.597 242.873C107.597 246.433 104.712 249.318 101.152 249.318Z" stroke="black" stroke-width="1.71858" mask="url(#path-1-inside-1_63_990)"/>
<path d="M53.8913 249.318C50.332 249.318 47.4466 246.433 47.4466 242.873C47.4466 239.314 50.332 236.429 53.8913 236.429C57.4506 236.429 60.336 239.314 60.336 242.873C60.336 246.433 57.4506 249.318 53.8913 249.318Z" stroke="black" stroke-width="1.71858" mask="url(#path-1-inside-1_63_990)"/>
<path d="M6.63024 249.318C3.07094 249.318 0.185549 246.433 0.185549 242.873C0.185549 239.314 3.07094 236.429 6.63024 236.429C10.1895 236.429 13.0749 239.314 13.0749 242.873C13.0749 246.433 10.1895 249.318 6.63024 249.318Z" stroke="black" stroke-width="1.71858" mask="url(#path-1-inside-1_63_990)"/>
<path d="M384.719 296.579C381.16 296.579 378.274 293.694 378.274 290.134C378.274 286.575 381.16 283.69 384.719 283.69C388.278 283.69 391.164 286.575 391.164 290.134C391.164 293.694 388.278 296.579 384.719 296.579Z" stroke="black" stroke-width="1.71858" mask="url(#path-1-inside-1_63_990)"/>
<path d="M337.458 296.579C333.898 296.579 331.013 293.694 331.013 290.134C331.013 286.575 333.898 283.69 337.458 283.69C341.017 283.69 343.902 286.575 343.902 290.134C343.902 293.694 341.017 296.579 337.458 296.579Z" stroke="black" stroke-width="1.71858" mask="url(#path-1-inside-1_63_990)"/>
<path d="M290.197 296.579C286.637 296.579 283.752 293.694 283.752 290.134C283.752 286.575 286.637 283.69 290.197 283.69C293.756 283.69 296.641 286.575 296.641 290.134C296.641 293.694 293.756 296.579 290.197 296.579Z" stroke="black" stroke-width="1.71858" mask="url(#path-1-inside-1_63_990)"/>
<path d="M242.936 296.579C239.376 296.579 236.491 293.694 236.491 290.134C236.491 286.575 239.376 283.69 242.936 283.69C246.495 283.69 249.38 286.575 249.38 290.134C249.38 293.694 246.495 296.579 242.936 296.579Z" stroke="black" stroke-width="1.71858" mask="url(#path-1-inside-1_63_990)"/>
<path d="M195.675 296.579C192.115 296.579 189.23 293.694 189.23 290.134C189.23 286.575 192.115 283.69 195.675 283.69C199.234 283.69 202.119 286.575 202.119 290.134C202.119 293.694 199.234 296.579 195.675 296.579Z" stroke="black" stroke-width="1.71858" mask="url(#path-1-inside-1_63_990)"/>
<path d="M148.413 296.579C144.854 296.579 141.969 293.694 141.969 290.134C141.969 286.575 144.854 283.69 148.413 283.69C151.973 283.69 154.858 286.575 154.858 290.134C154.858 293.694 151.973 296.579 148.413 296.579Z" stroke="black" stroke-width="1.71858" mask="url(#path-1-inside-1_63_990)"/>
<path d="M101.152 296.579C97.5931 296.579 94.7077 293.694 94.7077 290.134C94.7077 286.575 97.5931 283.69 101.152 283.69C104.712 283.69 107.597 286.575 107.597 290.134C107.597 293.694 104.712 296.579 101.152 296.579Z" stroke="black" stroke-width="1.71858" mask="url(#path-1-inside-1_63_990)"/>
<path d="M53.8913 296.579C50.332 296.579 47.4466 293.694 47.4466 290.134C47.4466 286.575 50.332 283.69 53.8913 283.69C57.4506 283.69 60.336 286.575 60.336 290.134C60.336 293.694 57.4506 296.579 53.8913 296.579Z" stroke="black" stroke-width="1.71858" mask="url(#path-1-inside-1_63_990)"/>
<path d="M6.63024 296.579C3.07093 296.579 0.185547 293.694 0.185547 290.134C0.185547 286.575 3.07093 283.69 6.63024 283.69C10.1895 283.69 13.0749 286.575 13.0749 290.134C13.0749 293.694 10.1895 296.579 6.63024 296.579Z" stroke="black" stroke-width="1.71858" mask="url(#path-1-inside-1_63_990)"/>
</g>
</svg>
